<svg xmlns="http://www.w3.org/2000/svg" xmlns:xlink="http://www.w3.org/1999/xlink" width="65.024mm" height="98.044mm" viewBox="4027 3214.5 256 386"><title></title><style type="text/css">
*[layerid="1"] {stroke:#000000;fill:#000000;}
*[layerid="2"] {stroke:#000000;fill:#000000;}
*[layerid="3"] {stroke:#000000;fill:#000000;}
*[layerid="4"] {stroke:#000000;fill:#000000;}
*[layerid="5"] {stroke:#000000;fill:#000000;}
*[layerid="6"] {stroke:#000000;fill:#000000;}
*[layerid="7"] {stroke:#000000;fill:#000000;}
*[layerid="8"] {stroke:#000000;fill:#000000;}
*[layerid="9"] {stroke:#000000;fill:#000000;}
*[layerid="10"] {stroke:#000000;fill:#000000;}
*[layerid="11"] {stroke:#000000;fill:#000000;}
*[layerid="12"] {stroke:#000000;fill:#000000;}
*[layerid="13"] {stroke:#000000;fill:#000000;}
*[layerid="14"] {stroke:#000000;fill:#000000;}
*[layerid="15"] {stroke:#000000;fill:#000000;}
*[layerid="19"] {stroke:#000000;fill:#000000;}
*[layerid="21"] {stroke:#000000;fill:#000000;}
*[layerid="22"] {stroke:#000000;fill:#000000;}
*[layerid="23"] {stroke:#000000;fill:#000000;}
*[layerid="24"] {stroke:#000000;fill:#000000;}
*[layerid="25"] {stroke:#000000;fill:#000000;}
*[layerid="26"] {stroke:#000000;fill:#000000;}
*[layerid="27"] {stroke:#000000;fill:#000000;}
*[layerid="28"] {stroke:#000000;fill:#000000;}
*[layerid="29"] {stroke:#000000;fill:#000000;}
*[layerid="30"] {stroke:#000000;fill:#000000;}
*[layerid="31"] {stroke:#000000;fill:#000000;}
*[layerid="32"] {stroke:#000000;fill:#000000;}
*[layerid="33"] {stroke:#000000;fill:#000000;}
*[layerid="34"] {stroke:#000000;fill:#000000;}
*[layerid="35"] {stroke:#000000;fill:#000000;}
*[layerid="36"] {stroke:#000000;fill:#000000;}
*[layerid="37"] {stroke:#000000;fill:#000000;}
*[layerid="38"] {stroke:#000000;fill:#000000;}
*[layerid="39"] {stroke:#000000;fill:#000000;}
*[layerid="40"] {stroke:#000000;fill:#000000;}
*[layerid="41"] {stroke:#000000;fill:#000000;}
*[layerid="42"] {stroke:#000000;fill:#000000;}
*[layerid="43"] {stroke:#000000;fill:#000000;}
*[layerid="44"] {stroke:#000000;fill:#000000;}
*[layerid="45"] {stroke:#000000;fill:#000000;}
*[layerid="46"] {stroke:#000000;fill:#000000;}
*[layerid="47"] {stroke:#000000;fill:#000000;}
*[layerid="48"] {stroke:#000000;fill:#000000;}
*[layerid="49"] {stroke:#000000;fill:#000000;}
*[layerid="50"] {stroke:#000000;fill:#000000;}
*[layerid="51"] {stroke:#000000;fill:#000000;}
*[layerid="52"] {stroke:#000000;fill:#000000;}
*[layerid="99"] {stroke:#000000;fill:#000000;}
*[layerid="100"] {stroke:#000000;fill:#000000;}
*[layerid="101"] {stroke:#000000;fill:#000000;}
*[layerid="Hole"] {stroke:#000000;fill:#000000;}
*[layerid="DRCError"] {stroke:#000000;fill:#000000;}
*[fill="none"] {fill: none;}
*[stroke="none"] {stroke: none;}
path, polyline, polygon, line {stroke-linecap:round;}
g[c_partid="part_pad"][layerid="1"] ellipse:not([c_etype="pad_outer"]) {fill:#000000;}
g[c_partid="part_pad"][layerid="1"] polygon:not([c_etype="pad_outer"]) {fill:#000000;}
g[c_partid="part_pad"][layerid="1"] polyline:not([c_etype="pad_outer"]) {stroke:#000000;}
g[c_partid="part_pad"][layerid="2"] ellipse:not([c_etype="pad_outer"]) {fill:#000000;}
g[c_partid="part_pad"][layerid="2"] polygon:not([c_etype="pad_outer"]) {fill:#000000;}
g[c_partid="part_pad"][layerid="2"] polyline:not([c_etype="pad_outer"]) {stroke:#000000;}
g[c_partid="part_pad"][layerid="11"] ellipse:not([c_etype="pad_outer"]) {fill:#000000;}
g[c_partid="part_pad"][layerid="11"] polygon:not([c_etype="pad_outer"]) {fill:#000000;}
g[c_partid="part_pad"][layerid="11"] polyline:not([c_etype="pad_outer"]) {stroke:#000000;}
g[c_partid="part_pad"][layerid="11"] circle {fill:#FFFFFF;}
g[c_partid="part_pad"][layerid="11"] > polyline:nth-of-type(2) {stroke:#FFFFFF;}
g[c_partid="part_pad"][layerid="11"][c_shape="ELLIPSE"]  polyline:nth-last-of-type(1) {stroke:#FFFFFF;}
g[c_partid="part_pad"][layerid="11"][c_shape="RECT"]  polyline:nth-last-of-type(1) {stroke:#FFFFFF;}
g[c_partid="part_pad"][layerid="11"][c_shape="POLYGON"]  polyline:nth-last-of-type(1) {stroke:#FFFFFF;}
g[c_partid="part_via"] > * + circle, #gCurParts g[c_partid="part_via"] > * + circle {fill:#FFFFFF;}
g[c_partid="part_pad"] > polygon[c_etype="pad_outer"], #gCurParts g[c_partid="part_pad"] > polygon[c_etype="pad_outer"] {stroke-linejoin: round;stroke-miterlimit: 100;}
g[c_partid="part_hole"] > circle {fill: #FFFFFF;}path, polyline, polygon {stroke-linejoin:round;}
rect, circle, ellipse, polyline, line, polygon, path {shape-rendering:crispEdges;}
</style>
<rect x="4027" y="3214.5" width="256" height="386" fill="#FFFFFF" stroke="none"/><path d="M 4271.25307 3580.44955 L 4271.1 3580.48 4211.9 3580.48 4211.74693 3580.44955 4211.61716 3580.36284 4211.53045 3580.23307 4211.5 3580.08 4211.5 3442.5394 4211.47214 3442.47214 4202.52786 3433.52786 4202.4606 3433.5 4140.66569 3433.5 4140.51261 3433.46955 4140.38284 3433.38284 4134.61716 3427.61716 4134.53045 3427.48739 4134.5 3427.33431 4134.5 3226.4 4134.53045 3226.24693 4134.61716 3226.11716 4134.74693 3226.03045 4134.9 3226 4271.1 3226 4271.25307 3226.03045 4271.38284 3226.11716 4271.46955 3226.24693 4271.5 3226.4 4271.5 3580.08 4271.46955 3580.23307 4271.38284 3580.36284 4271.25307 3580.44955 Z M 4260.34812 3572.95747 L 4261.11036 3572.90211 4261.8637 3572.77345 4262.6011 3572.57267 4263.31569 3572.30167 4264.00078 3571.96296 4264.64998 3571.55971 4265.25724 3571.09569 4265.81687 3570.57522 4266.32366 3570.00318 4266.77288 3569.38489 4267.16032 3568.72613 4267.48238 3568.03305 4267.73604 3567.31213 4267.91893 3566.57008 4268.02936 3565.81386 4268.06628 3565.0505 4268.02936 3564.28714 4267.91893 3563.53092 4267.73604 3562.78887 4267.48238 3562.06795 4267.16032 3561.37487 4266.77288 3560.71611 4266.32366 3560.09782 4265.81687 3559.52578 4265.25724 3559.00531 4264.64998 3558.54129 4264.00078 3558.13804 4263.31569 3557.79933 4262.6011 3557.52833 4261.8637 3557.32755 4261.11036 3557.19889 4260.34812 3557.14353 4259.58409 3557.16199 4258.82542 3557.25411 4258.07917 3557.41903 4257.35233 3557.65519 4256.65167 3557.96041 4255.98374 3558.33182 4255.35478 3558.76596 4254.77065 3559.25878 4254.23682 3559.80568 4253.75826 3560.40154 4253.33944 3561.04081 4252.98427 3561.71752 4252.69608 3562.42535 4252.47755 3563.15768 4252.33071 3563.9077 4252.25695 3564.66838 4252.25695 3565.43262 4252.33071 3566.1933 4252.47755 3566.94332 4252.69608 3567.67565 4252.98427 3568.38348 4253.33944 3569.06019 4253.75826 3569.69946 4254.23682 3570.29532 4254.77065 3570.84222 4255.35478 3571.33504 4255.98374 3571.76918 4256.65167 3572.14059 4257.35233 3572.44581 4258.07917 3572.68197 4258.82542 3572.84689 4259.58409 3572.93901 4260.34812 3572.95747 Z M 4260.34812 3246.18647 L 4261.11036 3246.13111 4261.8637 3246.00245 4262.6011 3245.80167 4263.31569 3245.53067 4264.00078 3245.19196 4264.64998 3244.78871 4265.25724 3244.32469 4265.81687 3243.80422 4266.32366 3243.23218 4266.77288 3242.61389 4267.16032 3241.95513 4267.48238 3241.26205 4267.73604 3240.54113 4267.91893 3239.79908 4268.02936 3239.04286 4268.06628 3238.2795 4268.02936 3237.51614 4267.91893 3236.75992 4267.73604 3236.01787 4267.48238 3235.29695 4267.16032 3234.60387 4266.77288 3233.94511 4266.32366 3233.32682 4265.81687 3232.75478 4265.25724 3232.23431 4264.64998 3231.77029 4264.00078 3231.36704 4263.31569 3231.02833 4262.6011 3230.75733 4261.8637 3230.55655 4261.11036 3230.42789 4260.34812 3230.37253 4259.58409 3230.39099 4258.82542 3230.48311 4258.07917 3230.64803 4257.35233 3230.88419 4256.65167 3231.18941 4255.98374 3231.56082 4255.35478 3231.99496 4254.77065 3232.48778 4254.23682 3233.03468 4253.75826 3233.63054 4253.33944 3234.26981 4252.98427 3234.94652 4252.69608 3235.65435 4252.47755 3236.38668 4252.33071 3237.1367 4252.25695 3237.89738 4252.25695 3238.66162 4252.33071 3239.4223 4252.47755 3240.17232 4252.69608 3240.90465 4252.98427 3241.61248 4253.33944 3242.28919 4253.75826 3242.92846 4254.23682 3243.52432 4254.77065 3244.07122 4255.35478 3244.56404 4255.98374 3244.99818 4256.65167 3245.36959 4257.35233 3245.67481 4258.07917 3245.91097 4258.82542 3246.07589 4259.58409 3246.16801 4260.34812 3246.18647 Z M 4224.59503 3439.23704 L 4224.97172 3439.1888 4225.33485 3439.07759 4225.67395 3438.90662 4225.97929 3438.6808 4226.24206 3438.40662 4226.45473 3438.09198 4226.61115 3437.74592 4226.70685 3437.3784 4226.72307 3437.1878 4226.75891 3437.0531 4226.83879 3436.93888 4235.43607 3428.3416 4235.54263 3428.26538 4235.6681 3428.22768 4235.97172 3428.1888 4236.33485 3428.07759 4236.67395 3427.90662 4236.97929 3427.6808 4237.24206 3427.40662 4237.45473 3427.09198 4237.61115 3426.74592 4237.70685 3426.3784 4237.73905 3426 4237.70685 3425.6216 4237.61115 3425.25408 4237.45473 3424.90802 4237.24206 3424.59338 4236.97929 3424.3192 4236.67395 3424.09338 4236.33485 3423.92241 4235.97172 3423.8112 4235.59503 3423.76296 4235.2156 3423.77908 4234.84435 3423.85909 4234.49197 3424.00069 4234.16858 3424.19981 4233.8835 3424.45071 4233.64492 3424.74619 4233.45971 3425.07773 4233.33348 3425.435 4233.26354 3425.85356 4233.22464 3425.97075 4233.15186 3426.07048 4224.56354 3434.6588 4224.44158 3434.74218 4224.29767 3434.7756 4224.2156 3434.77908 4223.84435 3434.85909 4223.49197 3435.00069 4223.16858 3435.19981 4222.8835 3435.45071 4222.64492 3435.74619 4222.45971 3436.07773 4222.33319 3436.43581 4222.26901 3436.81011 4222.26901 3437.18989 4222.33319 3437.56419 4222.45971 3437.92227 4222.64492 3438.25381 4222.8835 3438.54929 4223.16858 3438.80019 4223.49197 3438.99931 4223.84435 3439.14091 4224.2156 3439.22092 4224.59503 3439.23704 Z M 4243.6339 3423.01646 L 4244.1681 3422.96272 4244.69036 3422.83826 4245.19138 3422.64529 4245.66221 3422.38727 4246.09445 3422.0688 4246.48038 3421.69555 4246.75073 3421.3532 4246.83827 3421.27132 4246.94614 3421.21906 4247.06465 3421.2011 4259.83922 3421.2011 4259.96719 3421.22212 4260.08171 3421.28298 4260.37619 3421.50746 4260.77798 3421.72594 4261.20841 3421.88054 4261.6574 3421.96761 4262.11442 3421.98513 4262.56876 3421.93268 4263.00977 3421.81149 4263.4271 3421.6244 4263.81099 3421.3758 4264.15243 3421.07151 4264.44342 3420.71866 4264.67714 3420.32553 4264.8481 3419.90134 4264.95231 3419.45601 4264.98732 3419 4264.95231 3418.54399 4264.8481 3418.09866 4264.67714 3417.67447 4264.44342 3417.28134 4264.15243 3416.92849 4263.81099 3416.6242 4263.4271 3416.3756 4263.00977 3416.18851 4262.56876 3416.06732 4262.11442 3416.01487 4261.6574 3416.03239 4261.20841 3416.11946 4260.77798 3416.27406 4260.37619 3416.49254 4260.08171 3416.71702 4259.96719 3416.77788 4259.83922 3416.7989 4247.06528 3416.7989 4246.94677 3416.78094 4246.8389 3416.72868 4246.75136 3416.6468 4246.48038 3416.30365 4246.09445 3415.9304 4245.66221 3415.61193 4245.19138 3415.35391 4244.69036 3415.16094 4244.1681 3415.03648 4243.6339 3414.98274 4243.0973 3415.00068 4242.56789 3415.08998 4242.0551 3415.24905 4241.56809 3415.47505 4241.11555 3415.76394 4240.70555 3416.11057 4240.34541 3416.50876 4240.04156 3416.9514 4239.79941 3417.43058 4239.6233 3417.93777 4239.51636 3418.46391 4239.4805 3418.9996 4239.51636 3419.53529 4239.6233 3420.06143 4239.79941 3420.56862 4240.04156 3421.0478 4240.34541 3421.49044 4240.70555 3421.88863 4241.11555 3422.23526 4241.56809 3422.52415 4242.0551 3422.75015 4242.56789 3422.90922 4243.0973 3422.99852 4243.6339 3423.01646 Z M 4254.67359 3302.09196 L 4254.92246 3302.12 4261.07754 3302.12 4261.32641 3302.09196 4261.54146 3302.01671 4261.73438 3301.89549 4261.89549 3301.73438 4262.01671 3301.54146 4262.09196 3301.32641 4262.12 3301.07754 4262.12 3294.92246 4262.09196 3294.67359 4262.01671 3294.45854 4261.89549 3294.26562 4261.73438 3294.10451 4261.54146 3293.98329 4261.32641 3293.90804 4261.07754 3293.88 4254.92246 3293.88 4254.67359 3293.90804 4254.45854 3293.98329 4254.26562 3294.10451 4254.10451 3294.26562 4253.98329 3294.45854 4253.90804 3294.67359 4253.88 3294.92246 4253.88 3301.07754 4253.90804 3301.32641 4253.98329 3301.54146 4254.10451 3301.73438 4254.26562 3301.89549 4254.45854 3302.01671 4254.67359 3302.09196 Z M 4254.67359 3312.09196 L 4254.92246 3312.12 4261.07754 3312.12 4261.32641 3312.09196 4261.54146 3312.01671 4261.73438 3311.89549 4261.89549 3311.73438 4262.01671 3311.54146 4262.09196 3311.32641 4262.12 3311.07754 4262.12 3304.92246 4262.09196 3304.67359 4262.01671 3304.45854 4261.89549 3304.26562 4261.73438 3304.10451 4261.54146 3303.98329 4261.32641 3303.90804 4261.07754 3303.88 4254.92246 3303.88 4254.67359 3303.90804 4254.45854 3303.98329 4254.26562 3304.10451 4254.10451 3304.26562 4253.98329 3304.45854 4253.90804 3304.67359 4253.88 3304.92246 4253.88 3311.07754 4253.90804 3311.32641 4253.98329 3311.54146 4254.10451 3311.73438 4254.26562 3311.89549 4254.45854 3312.01671 4254.67359 3312.09196 Z M 4250.59503 3449.73704 L 4250.97172 3449.6888 4251.33485 3449.57759 4251.67395 3449.40662 4251.97929 3449.1808 4252.24206 3448.90662 4252.45473 3448.59198 4252.61115 3448.24592 4252.70685 3447.8784 4252.73905 3447.5 4252.70685 3447.1216 4252.61115 3446.75408 4252.45473 3446.40802 4252.24206 3446.09338 4251.97929 3445.8192 4251.67395 3445.59338 4251.33485 3445.42241 4250.97172 3445.3112 4250.59503 3445.26296 4250.2156 3445.27908 4249.84435 3445.35909 4249.49197 3445.50069 4249.16858 3445.69981 4248.96354 3445.88027 4248.8405 3445.95424 4248.69927 3445.98 4241.80408 3445.98 4241.64709 3445.94791 4241.17395 3445.59338 4240.83485 3445.42241 4240.47172 3445.3112 4240.09503 3445.26296 4239.7156 3445.27908 4239.34435 3445.35909 4238.99197 3445.50069 4238.66858 3445.69981 4238.3835 3445.95071 4238.14492 3446.24619 4237.95971 3446.57773 4237.83319 3446.93581 4237.76901 3447.31011 4237.76901 3447.68989 4237.83319 3448.06419 4237.95971 3448.42227 4238.14492 3448.75381 4238.3835 3449.04929 4238.66858 3449.30019 4238.99197 3449.49931 4239.34435 3449.64091 4239.7156 3449.72092 4240.09503 3449.73704 4240.47172 3449.6888 4240.83485 3449.57759 4241.17395 3449.40662 4241.47929 3449.1808 4241.64709 3449.05209 4241.80408 3449.02 4248.69927 3449.02 4248.8405 3449.04576 4248.96354 3449.11973 4249.16858 3449.30019 4249.49197 3449.49931 4249.84435 3449.64091 4250.2156 3449.72092 4250.59503 3449.73704 Z M 4143.6339 3343.01646 L 4144.1681 3342.96272 4144.69036 3342.83826 4145.19138 3342.64529 4145.66221 3342.38727 4146.09445 3342.0688 4146.48038 3341.69555 4146.81312 3341.2742 4147.08673 3340.81226 4147.29632 3340.31797 4147.43817 3339.80015 4147.50973 3339.26805 4147.50973 3338.73115 4147.43817 3338.19905 4147.29632 3337.68123 4147.08673 3337.18694 4146.81312 3336.725 4146.48038 3336.30365 4146.09445 3335.9304 4145.66221 3335.61193 4145.19138 3335.35391 4144.69036 3335.16094 4144.1681 3335.03648 4143.6339 3334.98274 4143.0973 3335.00068 4142.56789 3335.08998 4142.0551 3335.24905 4141.56809 3335.47505 4141.11555 3335.76394 4140.70555 3336.11057 4140.34541 3336.50876 4140.04156 3336.9514 4139.79941 3337.43058 4139.6233 3337.93777 4139.51636 3338.46391 4139.4805 3338.9996 4139.51636 3339.53529 4139.6233 3340.06143 4139.79941 3340.56862 4140.04156 3341.0478 4140.34541 3341.49044 4140.70555 3341.88863 4141.11555 3342.23526 4141.56809 3342.52415 4142.0551 3342.75015 4142.56789 3342.90922 4143.0973 3342.99852 4143.6339 3343.01646 Z M 4143.0973 3322.99852 L 4143.6339 3323.01646 4144.1681 3322.96272 4144.69036 3322.83826 4145.19138 3322.64529 4145.66221 3322.38727 4146.09445 3322.0688 4146.48038 3321.69555 4146.81312 3321.2742 4147.08673 3320.81226 4147.29632 3320.31797 4147.43817 3319.80015 4147.50973 3319.26805 4147.50973 3318.73115 4147.43817 3318.19905 4147.29632 3317.68123 4147.08673 3317.18694 4146.81312 3316.725 4146.48038 3316.30365 4146.09445 3315.9304 4145.66221 3315.61193 4145.19138 3315.35391 4144.69036 3315.16094 4144.1681 3315.03648 4143.6339 3314.98274 4143.0973 3315.00068 4142.56789 3315.08998 4142.0551 3315.24905 4141.56809 3315.47505 4141.11555 3315.76394 4140.70555 3316.11057 4140.34541 3316.50876 4140.04156 3316.9514 4139.79941 3317.43058 4139.6233 3317.93777 4139.51636 3318.46391 4139.4805 3318.9996 4139.51636 3319.53529 4139.6233 3320.06143 4139.79941 3320.56862 4140.04156 3321.0478 4140.34541 3321.49044 4140.70555 3321.88863 4141.11555 3322.23526 4141.56809 3322.52415 4142.0551 3322.75015 4142.56789 3322.90922 4143.0973 3322.99852 Z M 4243.6339 3343.01646 L 4244.1681 3342.96272 4244.69036 3342.83826 4245.19138 3342.64529 4245.66221 3342.38727 4246.09445 3342.0688 4246.48038 3341.69555 4246.81312 3341.2742 4247.08673 3340.81226 4247.29632 3340.31797 4247.43817 3339.80015 4247.50973 3339.26805 4247.50973 3338.73115 4247.43817 3338.19905 4247.29632 3337.68123 4247.08673 3337.18694 4246.81312 3336.725 4246.48038 3336.30365 4246.09445 3335.9304 4245.66221 3335.61193 4245.19138 3335.35391 4244.69036 3335.16094 4244.1681 3335.03648 4243.6339 3334.98274 4243.0973 3335.00068 4242.56789 3335.08998 4242.0551 3335.24905 4241.56809 3335.47505 4241.11555 3335.76394 4240.70555 3336.11057 4240.34541 3336.50876 4240.04156 3336.9514 4239.79941 3337.43058 4239.6233 3337.93777 4239.51636 3338.46391 4239.4805 3338.9996 4239.51636 3339.53529 4239.6233 3340.06143 4239.79941 3340.56862 4240.04156 3341.0478 4240.34541 3341.49044 4240.70555 3341.88863 4241.11555 3342.23526 4241.56809 3342.52415 4242.0551 3342.75015 4242.56789 3342.90922 4243.0973 3342.99852 4243.6339 3343.01646 Z M 4143.6339 3313.01646 L 4144.1681 3312.96272 4144.69036 3312.83826 4145.19138 3312.64529 4145.66221 3312.38727 4146.09445 3312.0688 4146.48038 3311.69555 4146.81312 3311.2742 4147.08673 3310.81226 4147.29632 3310.31797 4147.43817 3309.80015 4147.50973 3309.26805 4147.50973 3308.73115 4147.43817 3308.19905 4147.29632 3307.68123 4147.08673 3307.18694 4146.81312 3306.725 4146.48038 3306.30365 4146.09445 3305.9304 4145.66221 3305.61193 4145.19138 3305.35391 4144.69036 3305.16094 4144.1681 3305.03648 4143.6339 3304.98274 4143.0973 3305.00068 4142.56789 3305.08998 4142.0551 3305.24905 4141.56809 3305.47505 4141.11555 3305.76394 4140.70555 3306.11057 4140.34541 3306.50876 4140.04156 3306.9514 4139.79941 3307.43058 4139.6233 3307.93777 4139.51636 3308.46391 4139.4805 3308.9996 4139.51636 3309.53529 4139.6233 3310.06143 4139.79941 3310.56862 4140.04156 3311.0478 4140.34541 3311.49044 4140.70555 3311.88863 4141.11555 3312.23526 4141.56809 3312.52415 4142.0551 3312.75015 4142.56789 3312.90922 4143.0973 3312.99852 4143.6339 3313.01646 Z M 4243.6339 3353.01646 L 4244.1681 3352.96272 4244.69036 3352.83826 4245.19138 3352.64529 4245.66221 3352.38727 4246.09445 3352.0688 4246.48038 3351.69555 4246.81312 3351.2742 4247.08673 3350.81226 4247.29632 3350.31797 4247.43817 3349.80015 4247.50973 3349.26805 4247.50973 3348.73115 4247.43817 3348.19905 4247.29632 3347.68123 4247.08673 3347.18694 4246.81312 3346.725 4246.48038 3346.30365 4246.09445 3345.9304 4245.66221 3345.61193 4245.19138 3345.35391 4244.69036 3345.16094 4244.1681 3345.03648 4243.6339 3344.98274 4243.0973 3345.00068 4242.56789 3345.08998 4242.0551 3345.24905 4241.56809 3345.47505 4241.11555 3345.76394 4240.70555 3346.11057 4240.34541 3346.50876 4240.04156 3346.9514 4239.79941 3347.43058 4239.6233 3347.93777 4239.51636 3348.46391 4239.4805 3348.9996 4239.51636 3349.53529 4239.6233 3350.06143 4239.79941 3350.56862 4240.04156 3351.0478 4240.34541 3351.49044 4240.70555 3351.88863 4241.11555 3352.23526 4241.56809 3352.52415 4242.0551 3352.75015 4242.56789 3352.90922 4243.0973 3352.99852 4243.6339 3353.01646 Z M 4243.6339 3313.01646 L 4244.1681 3312.96272 4244.69036 3312.83826 4245.19138 3312.64529 4245.66221 3312.38727 4246.09445 3312.0688 4246.48038 3311.69555 4246.81312 3311.2742 4247.08673 3310.81226 4247.29632 3310.31797 4247.43817 3309.80015 4247.50973 3309.26805 4247.50973 3308.73115 4247.43817 3308.19905 4247.29632 3307.68123 4247.08673 3307.18694 4246.81312 3306.725 4246.48038 3306.30365 4246.09445 3305.9304 4245.66221 3305.61193 4245.19138 3305.35391 4244.69036 3305.16094 4244.1681 3305.03648 4243.6339 3304.98274 4243.0973 3305.00068 4242.56789 3305.08998 4242.0551 3305.24905 4241.56809 3305.47505 4241.11555 3305.76394 4240.70555 3306.11057 4240.34541 3306.50876 4240.04156 3306.9514 4239.79941 3307.43058 4239.6233 3307.93777 4239.51636 3308.46391 4239.4805 3308.9996 4239.51636 3309.53529 4239.6233 3310.06143 4239.79941 3310.56862 4240.04156 3311.0478 4240.34541 3311.49044 4240.70555 3311.88863 4241.11555 3312.23526 4241.56809 3312.52415 4242.0551 3312.75015 4242.56789 3312.90922 4243.0973 3312.99852 4243.6339 3313.01646 Z M 4143.6339 3353.01646 L 4144.1681 3352.96272 4144.69036 3352.83826 4145.19138 3352.64529 4145.66221 3352.38727 4146.09445 3352.0688 4146.48038 3351.69555 4146.81312 3351.2742 4147.08673 3350.81226 4147.29632 3350.31797 4147.43817 3349.80015 4147.50973 3349.26805 4147.50973 3348.73115 4147.43817 3348.19905 4147.29632 3347.68123 4147.08673 3347.18694 4146.81312 3346.725 4146.48038 3346.30365 4146.09445 3345.9304 4145.66221 3345.61193 4145.19138 3345.35391 4144.69036 3345.16094 4144.1681 3345.03648 4143.6339 3344.98274 4143.0973 3345.00068 4142.56789 3345.08998 4142.0551 3345.24905 4141.56809 3345.47505 4141.11555 3345.76394 4140.70555 3346.11057 4140.34541 3346.50876 4140.04156 3346.9514 4139.79941 3347.43058 4139.6233 3347.93777 4139.51636 3348.46391 4139.4805 3348.9996 4139.51636 3349.53529 4139.6233 3350.06143 4139.79941 3350.56862 4140.04156 3351.0478 4140.34541 3351.49044 4140.70555 3351.88863 4141.11555 3352.23526 4141.56809 3352.52415 4142.0551 3352.75015 4142.56789 3352.90922 4143.0973 3352.99852 4143.6339 3353.01646 Z M 4243.6339 3323.01646 L 4244.1681 3322.96272 4244.69036 3322.83826 4245.19138 3322.64529 4245.66221 3322.38727 4246.09445 3322.0688 4246.48038 3321.69555 4246.81312 3321.2742 4247.08673 3320.81226 4247.29632 3320.31797 4247.43817 3319.80015 4247.50973 3319.26805 4247.50973 3318.73115 4247.43817 3318.19905 4247.29632 3317.68123 4247.08673 3317.18694 4246.81312 3316.725 4246.48038 3316.30365 4246.09445 3315.9304 4245.66221 3315.61193 4245.19138 3315.35391 4244.69036 3315.16094 4244.1681 3315.03648 4243.6339 3314.98274 4243.0973 3315.00068 4242.56789 3315.08998 4242.0551 3315.24905 4241.56809 3315.47505 4241.11555 3315.76394 4240.70555 3316.11057 4240.34541 3316.50876 4240.04156 3316.9514 4239.79941 3317.43058 4239.6233 3317.93777 4239.51636 3318.46391 4239.4805 3318.9996 4239.51636 3319.53529 4239.6233 3320.06143 4239.79941 3320.56862 4240.04156 3321.0478 4240.34541 3321.49044 4240.70555 3321.88863 4241.11555 3322.23526 4241.56809 3322.52415 4242.0551 3322.75015 4242.56789 3322.90922 4243.0973 3322.99852 4243.6339 3323.01646 Z M 4143.6339 3413.01646 L 4144.1681 3412.96272 4144.69036 3412.83826 4145.19138 3412.64529 4145.66221 3412.38727 4146.09445 3412.0688 4146.48038 3411.69555 4146.81312 3411.2742 4147.08673 3410.81226 4147.29632 3410.31797 4147.43817 3409.80015 4147.50973 3409.26805 4147.50973 3408.73115 4147.43817 3408.19905 4147.29632 3407.68123 4147.08673 3407.18694 4146.81312 3406.725 4146.48038 3406.30365 4146.09445 3405.9304 4145.66221 3405.61193 4145.19138 3405.35391 4144.69036 3405.16094 4144.1681 3405.03648 4143.6339 3404.98274 4143.0973 3405.00068 4142.56789 3405.08998 4142.0551 3405.24905 4141.56809 3405.47505 4141.11555 3405.76394 4140.70555 3406.11057 4140.34541 3406.50876 4140.04156 3406.9514 4139.79941 3407.43058 4139.6233 3407.93777 4139.51636 3408.46391 4139.4805 3408.9996 4139.51636 3409.53529 4139.6233 3410.06143 4139.79941 3410.56862 4140.04156 3411.0478 4140.34541 3411.49044 4140.70555 3411.88863 4141.11555 3412.23526 4141.56809 3412.52415 4142.0551 3412.75015 4142.56789 3412.90922 4143.0973 3412.99852 4143.6339 3413.01646 Z M 4143.6339 3303.01646 L 4144.1681 3302.96272 4144.69036 3302.83826 4145.19138 3302.64529 4145.66221 3302.38727 4146.09445 3302.0688 4146.48038 3301.69555 4146.81312 3301.2742 4147.08673 3300.81226 4147.29632 3300.31797 4147.43817 3299.80015 4147.50973 3299.26805 4147.50973 3298.73115 4147.43817 3298.19905 4147.29632 3297.68123 4147.08673 3297.18694 4146.81312 3296.725 4146.48038 3296.30365 4146.09445 3295.9304 4145.66221 3295.61193 4145.19138 3295.35391 4144.69036 3295.16094 4144.1681 3295.03648 4143.6339 3294.98274 4143.0973 3295.00068 4142.56789 3295.08998 4142.0551 3295.24905 4141.56809 3295.47505 4141.11555 3295.76394 4140.70555 3296.11057 4140.34541 3296.50876 4140.04156 3296.9514 4139.79941 3297.43058 4139.6233 3297.93777 4139.51636 3298.46391 4139.4805 3298.9996 4139.51636 3299.53529 4139.6233 3300.06143 4139.79941 3300.56862 4140.04156 3301.0478 4140.34541 3301.49044 4140.70555 3301.88863 4141.11555 3302.23526 4141.56809 3302.52415 4142.0551 3302.75015 4142.56789 3302.90922 4143.0973 3302.99852 4143.6339 3303.01646 Z M 4243.6339 3412.51646 L 4244.1681 3412.46272 4244.69036 3412.33826 4245.19138 3412.14529 4245.66221 3411.88727 4246.09445 3411.5688 4246.48038 3411.19555 4246.81312 3410.7742 4247.08673 3410.31226 4247.29632 3409.81797 4247.43817 3409.30015 4247.50973 3408.76805 4247.50973 3408.23115 4247.43817 3407.69905 4247.29632 3407.18123 4247.08673 3406.68694 4246.81312 3406.225 4246.48038 3405.80365 4246.09445 3405.4304 4245.66221 3405.11193 4245.19138 3404.85391 4244.69036 3404.66094 4244.1681 3404.53648 4243.6339 3404.48274 4243.0973 3404.50068 4242.56789 3404.58998 4242.0551 3404.74905 4241.56809 3404.97505 4241.11555 3405.26394 4240.70555 3405.61057 4240.34541 3406.00876 4240.04156 3406.4514 4239.79941 3406.93058 4239.6233 3407.43777 4239.51636 3407.96391 4239.4805 3408.4996 4239.51636 3409.03529 4239.6233 3409.56143 4239.79941 3410.06862 4240.04156 3410.5478 4240.34541 3410.99044 4240.70555 3411.38863 4241.11555 3411.73526 4241.56809 3412.02415 4242.0551 3412.25015 4242.56789 3412.40922 4243.0973 3412.49852 4243.6339 3412.51646 Z M 4243.0973 3302.99852 L 4243.6339 3303.01646 4244.1681 3302.96272 4244.69036 3302.83826 4245.19138 3302.64529 4245.66221 3302.38727 4246.09445 3302.0688 4246.48038 3301.69555 4246.81312 3301.2742 4247.08673 3300.81226 4247.29632 3300.31797 4247.43817 3299.80015 4247.50973 3299.26805 4247.50973 3298.73115 4247.43817 3298.19905 4247.29632 3297.68123 4247.08673 3297.18694 4246.81312 3296.725 4246.48038 3296.30365 4246.09445 3295.9304 4245.66221 3295.61193 4245.19138 3295.35391 4244.69036 3295.16094 4244.1681 3295.03648 4243.6339 3294.98274 4243.0973 3295.00068 4242.56789 3295.08998 4242.0551 3295.24905 4241.56809 3295.47505 4241.11555 3295.76394 4240.70555 3296.11057 4240.34541 3296.50876 4240.04156 3296.9514 4239.79941 3297.43058 4239.6233 3297.93777 4239.51636 3298.46391 4239.4805 3298.9996 4239.51636 3299.53529 4239.6233 3300.06143 4239.79941 3300.56862 4240.04156 3301.0478 4240.34541 3301.49044 4240.70555 3301.88863 4241.11555 3302.23526 4241.56809 3302.52415 4242.0551 3302.75015 4242.56789 3302.90922 4243.0973 3302.99852 Z M 4143.6339 3403.01646 L 4144.1681 3402.96272 4144.69036 3402.83826 4145.19138 3402.64529 4145.66221 3402.38727 4146.09445 3402.0688 4146.48038 3401.69555 4146.81312 3401.2742 4147.08673 3400.81226 4147.29632 3400.31797 4147.43817 3399.80015 4147.50973 3399.26805 4147.50973 3398.73115 4147.43817 3398.19905 4147.29632 3397.68123 4147.08673 3397.18694 4146.81312 3396.725 4146.48038 3396.30365 4146.09445 3395.9304 4145.66221 3395.61193 4145.19138 3395.35391 4144.69036 3395.16094 4144.1681 3395.03648 4143.6339 3394.98274 4143.0973 3395.00068 4142.56789 3395.08998 4142.0551 3395.24905 4141.56809 3395.47505 4141.11555 3395.76394 4140.70555 3396.11057 4140.34541 3396.50876 4140.04156 3396.9514 4139.79941 3397.43058 4139.6233 3397.93777 4139.51636 3398.46391 4139.4805 3398.9996 4139.51636 3399.53529 4139.6233 3400.06143 4139.79941 3400.56862 4140.04156 3401.0478 4140.34541 3401.49044 4140.70555 3401.88863 4141.11555 3402.23526 4141.56809 3402.52415 4142.0551 3402.75015 4142.56789 3402.90922 4143.0973 3402.99852 4143.6339 3403.01646 Z M 4143.6339 3333.01646 L 4144.1681 3332.96272 4144.69036 3332.83826 4145.19138 3332.64529 4145.66221 3332.38727 4146.09445 3332.0688 4146.48038 3331.69555 4146.81312 3331.2742 4147.08673 3330.81226 4147.29632 3330.31797 4147.43817 3329.80015 4147.50973 3329.26805 4147.50973 3328.73115 4147.43817 3328.19905 4147.29632 3327.68123 4147.08673 3327.18694 4146.81312 3326.725 4146.48038 3326.30365 4146.09445 3325.9304 4145.66221 3325.61193 4145.19138 3325.35391 4144.69036 3325.16094 4144.1681 3325.03648 4143.6339 3324.98274 4143.0973 3325.00068 4142.56789 3325.08998 4142.0551 3325.24905 4141.56809 3325.47505 4141.11555 3325.76394 4140.70555 3326.11057 4140.34541 3326.50876 4140.04156 3326.9514 4139.79941 3327.43058 4139.6233 3327.93777 4139.51636 3328.46391 4139.4805 3328.9996 4139.51636 3329.53529 4139.6233 3330.06143 4139.79941 3330.56862 4140.04156 3331.0478 4140.34541 3331.49044 4140.70555 3331.88863 4141.11555 3332.23526 4141.56809 3332.52415 4142.0551 3332.75015 4142.56789 3332.90922 4143.0973 3332.99852 4143.6339 3333.01646 Z M 4243.0973 3402.99852 L 4243.6339 3403.01646 4244.1681 3402.96272 4244.69036 3402.83826 4245.19138 3402.64529 4245.66221 3402.38727 4246.09445 3402.0688 4246.48038 3401.69555 4246.81312 3401.2742 4247.08673 3400.81226 4247.29632 3400.31797 4247.43817 3399.80015 4247.50973 3399.26805 4247.50973 3398.73115 4247.43817 3398.19905 4247.29632 3397.68123 4247.08673 3397.18694 4246.81312 3396.725 4246.48038 3396.30365 4246.09445 3395.9304 4245.66221 3395.61193 4245.19138 3395.35391 4244.69036 3395.16094 4244.1681 3395.03648 4243.6339 3394.98274 4243.0973 3395.00068 4242.56789 3395.08998 4242.0551 3395.24905 4241.56809 3395.47505 4241.11555 3395.76394 4240.70555 3396.11057 4240.34541 3396.50876 4240.04156 3396.9514 4239.79941 3397.43058 4239.6233 3397.93777 4239.51636 3398.46391 4239.4805 3398.9996 4239.51636 3399.53529 4239.6233 3400.06143 4239.79941 3400.56862 4240.04156 3401.0478 4240.34541 3401.49044 4240.70555 3401.88863 4241.11555 3402.23526 4241.56809 3402.52415 4242.0551 3402.75015 4242.56789 3402.90922 4243.0973 3402.99852 Z M 4143.6339 3293.01646 L 4144.1681 3292.96272 4144.69036 3292.83826 4145.19138 3292.64529 4145.66221 3292.38727 4146.09445 3292.0688 4146.48038 3291.69555 4146.81312 3291.2742 4147.08673 3290.81226 4147.29632 3290.31797 4147.43817 3289.80015 4147.50973 3289.26805 4147.50973 3288.73115 4147.43817 3288.19905 4147.29632 3287.68123 4147.08673 3287.18694 4146.81312 3286.725 4146.48038 3286.30365 4146.09445 3285.9304 4145.66221 3285.61193 4145.19138 3285.35391 4144.69036 3285.16094 4144.1681 3285.03648 4143.6339 3284.98274 4143.0973 3285.00068 4142.56789 3285.08998 4142.0551 3285.24905 4141.56809 3285.47505 4141.11555 3285.76394 4140.70555 3286.11057 4140.34541 3286.50876 4140.04156 3286.9514 4139.79941 3287.43058 4139.6233 3287.93777 4139.51636 3288.46391 4139.4805 3288.9996 4139.51636 3289.53529 4139.6233 3290.06143 4139.79941 3290.56862 4140.04156 3291.0478 4140.34541 3291.49044 4140.70555 3291.88863 4141.11555 3292.23526 4141.56809 3292.52415 4142.0551 3292.75015 4142.56789 3292.90922 4143.0973 3292.99852 4143.6339 3293.01646 Z M 4143.0973 3392.99852 L 4143.6339 3393.01646 4144.1681 3392.96272 4144.69036 3392.83826 4145.19138 3392.64529 4145.66221 3392.38727 4146.09445 3392.0688 4146.48038 3391.69555 4146.81312 3391.2742 4147.08673 3390.81226 4147.29632 3390.31797 4147.43817 3389.80015 4147.50973 3389.26805 4147.50973 3388.73115 4147.43817 3388.19905 4147.29632 3387.68123 4147.08673 3387.18694 4146.81312 3386.725 4146.48038 3386.30365 4146.09445 3385.9304 4145.66221 3385.61193 4145.19138 3385.35391 4144.69036 3385.16094 4144.1681 3385.03648 4143.6339 3384.98274 4143.0973 3385.00068 4142.56789 3385.08998 4142.0551 3385.24905 4141.56809 3385.47505 4141.11555 3385.76394 4140.70555 3386.11057 4140.34541 3386.50876 4140.04156 3386.9514 4139.79941 3387.43058 4139.6233 3387.93777 4139.51636 3388.46391 4139.4805 3388.9996 4139.51636 3389.53529 4139.6233 3390.06143 4139.79941 3390.56862 4140.04156 3391.0478 4140.34541 3391.49044 4140.70555 3391.88863 4141.11555 3392.23526 4141.56809 3392.52415 4142.0551 3392.75015 4142.56789 3392.90922 4143.0973 3392.99852 Z M 4243.6339 3333.01646 L 4244.1681 3332.96272 4244.69036 3332.83826 4245.19138 3332.64529 4245.66221 3332.38727 4246.09445 3332.0688 4246.48038 3331.69555 4246.81312 3331.2742 4247.08673 3330.81226 4247.29632 3330.31797 4247.43817 3329.80015 4247.50973 3329.26805 4247.50973 3328.73115 4247.43817 3328.19905 4247.29632 3327.68123 4247.08673 3327.18694 4246.81312 3326.725 4246.48038 3326.30365 4246.09445 3325.9304 4245.66221 3325.61193 4245.19138 3325.35391 4244.69036 3325.16094 4244.1681 3325.03648 4243.6339 3324.98274 4243.0973 3325.00068 4242.56789 3325.08998 4242.0551 3325.24905 4241.56809 3325.47505 4241.11555 3325.76394 4240.70555 3326.11057 4240.34541 3326.50876 4240.04156 3326.9514 4239.79941 3327.43058 4239.6233 3327.93777 4239.51636 3328.46391 4239.4805 3328.9996 4239.51636 3329.53529 4239.6233 3330.06143 4239.79941 3330.56862 4240.04156 3331.0478 4240.34541 3331.49044 4240.70555 3331.88863 4241.11555 3332.23526 4241.56809 3332.52415 4242.0551 3332.75015 4242.56789 3332.90922 4243.0973 3332.99852 4243.6339 3333.01646 Z M 4243.6339 3393.01646 L 4244.1681 3392.96272 4244.69036 3392.83826 4245.19138 3392.64529 4245.66221 3392.38727 4246.09445 3392.0688 4246.48038 3391.69555 4246.81312 3391.2742 4247.08673 3390.81226 4247.29632 3390.31797 4247.43817 3389.80015 4247.50973 3389.26805 4247.50973 3388.73115 4247.43817 3388.19905 4247.29632 3387.68123 4247.08673 3387.18694 4246.81312 3386.725 4246.48038 3386.30365 4246.09445 3385.9304 4245.66221 3385.61193 4245.19138 3385.35391 4244.69036 3385.16094 4244.1681 3385.03648 4243.6339 3384.98274 4243.0973 3385.00068 4242.56789 3385.08998 4242.0551 3385.24905 4241.56809 3385.47505 4241.11555 3385.76394 4240.70555 3386.11057 4240.34541 3386.50876 4240.04156 3386.9514 4239.79941 3387.43058 4239.6233 3387.93777 4239.51636 3388.46391 4239.4805 3388.9996 4239.51636 3389.53529 4239.6233 3390.06143 4239.79941 3390.56862 4240.04156 3391.0478 4240.34541 3391.49044 4240.70555 3391.88863 4241.11555 3392.23526 4241.56809 3392.52415 4242.0551 3392.75015 4242.56789 3392.90922 4243.0973 3392.99852 4243.6339 3393.01646 Z M 4243.6339 3243.01646 L 4244.1681 3242.96272 4244.69036 3242.83826 4245.19138 3242.64529 4245.66221 3242.38727 4246.09445 3242.0688 4246.48038 3241.69555 4246.81312 3241.2742 4247.08673 3240.81226 4247.29632 3240.31797 4247.43817 3239.80015 4247.50973 3239.26805 4247.50973 3238.73115 4247.43817 3238.19905 4247.29632 3237.68123 4247.08673 3237.18694 4246.81312 3236.725 4246.48038 3236.30365 4246.09445 3235.9304 4245.66221 3235.61193 4245.19138 3235.35391 4244.69036 3235.16094 4244.1681 3235.03648 4243.6339 3234.98274 4243.0973 3235.00068 4242.56789 3235.08998 4242.0551 3235.24905 4241.56809 3235.47505 4241.11555 3235.76394 4240.70555 3236.11057 4240.34541 3236.50876 4240.04156 3236.9514 4239.79941 3237.43058 4239.6233 3237.93777 4239.51636 3238.46391 4239.4805 3238.9996 4239.51636 3239.53529 4239.6233 3240.06143 4239.79941 3240.56862 4240.04156 3241.0478 4240.34541 3241.49044 4240.70555 3241.88863 4241.11555 3242.23526 4241.56809 3242.52415 4242.0551 3242.75015 4242.56789 3242.90922 4243.0973 3242.99852 4243.6339 3243.01646 Z M 4143.6339 3383.01646 L 4144.1681 3382.96272 4144.69036 3382.83826 4145.19138 3382.64529 4145.66221 3382.38727 4146.09445 3382.0688 4146.48038 3381.69555 4146.81312 3381.2742 4147.08673 3380.81226 4147.29632 3380.31797 4147.43817 3379.80015 4147.50973 3379.26805 4147.50973 3378.73115 4147.43817 3378.19905 4147.29632 3377.68123 4147.08673 3377.18694 4146.81312 3376.725 4146.48038 3376.30365 4146.09445 3375.9304 4145.66221 3375.61193 4145.19138 3375.35391 4144.69036 3375.16094 4144.1681 3375.03648 4143.6339 3374.98274 4143.0973 3375.00068 4142.56789 3375.08998 4142.0551 3375.24905 4141.56809 3375.47505 4141.11555 3375.76394 4140.70555 3376.11057 4140.34541 3376.50876 4140.04156 3376.9514 4139.79941 3377.43058 4139.6233 3377.93777 4139.51636 3378.46391 4139.4805 3378.9996 4139.51636 3379.53529 4139.6233 3380.06143 4139.79941 3380.56862 4140.04156 3381.0478 4140.34541 3381.49044 4140.70555 3381.88863 4141.11555 3382.23526 4141.56809 3382.52415 4142.0551 3382.75015 4142.56789 3382.90922 4143.0973 3382.99852 4143.6339 3383.01646 Z M 4143.6339 3283.01646 L 4144.1681 3282.96272 4144.69036 3282.83826 4145.19138 3282.64529 4145.66221 3282.38727 4146.09445 3282.0688 4146.48038 3281.69555 4146.81312 3281.2742 4147.08673 3280.81226 4147.29632 3280.31797 4147.43817 3279.80015 4147.50973 3279.26805 4147.50973 3278.73115 4147.43817 3278.19905 4147.29632 3277.68123 4147.08673 3277.18694 4146.81312 3276.725 4146.48038 3276.30365 4146.09445 3275.9304 4145.66221 3275.61193 4145.19138 3275.35391 4144.69036 3275.16094 4144.1681 3275.03648 4143.6339 3274.98274 4143.0973 3275.00068 4142.56789 3275.08998 4142.0551 3275.24905 4141.56809 3275.47505 4141.11555 3275.76394 4140.70555 3276.11057 4140.34541 3276.50876 4140.04156 3276.9514 4139.79941 3277.43058 4139.6233 3277.93777 4139.51636 3278.46391 4139.4805 3278.9996 4139.51636 3279.53529 4139.6233 3280.06143 4139.79941 3280.56862 4140.04156 3281.0478 4140.34541 3281.49044 4140.70555 3281.88863 4141.11555 3282.23526 4141.56809 3282.52415 4142.0551 3282.75015 4142.56789 3282.90922 4143.0973 3282.99852 4143.6339 3283.01646 Z M 4243.0973 3382.99852 L 4243.6339 3383.01646 4244.1681 3382.96272 4244.69036 3382.83826 4245.19138 3382.64529 4245.66221 3382.38727 4246.09445 3382.0688 4246.48038 3381.69555 4246.81312 3381.2742 4247.08673 3380.81226 4247.29632 3380.31797 4247.43817 3379.80015 4247.50973 3379.26805 4247.50973 3378.73115 4247.43817 3378.19905 4247.29632 3377.68123 4247.08673 3377.18694 4246.81312 3376.725 4246.48038 3376.30365 4246.09445 3375.9304 4245.66221 3375.61193 4245.19138 3375.35391 4244.69036 3375.16094 4244.1681 3375.03648 4243.6339 3374.98274 4243.0973 3375.00068 4242.56789 3375.08998 4242.0551 3375.24905 4241.56809 3375.47505 4241.11555 3375.76394 4240.70555 3376.11057 4240.34541 3376.50876 4240.04156 3376.9514 4239.79941 3377.43058 4239.6233 3377.93777 4239.51636 3378.46391 4239.4805 3378.9996 4239.51636 3379.53529 4239.6233 3380.06143 4239.79941 3380.56862 4240.04156 3381.0478 4240.34541 3381.49044 4240.70555 3381.88863 4241.11555 3382.23526 4241.56809 3382.52415 4242.0551 3382.75015 4242.56789 3382.90922 4243.0973 3382.99852 Z M 4243.0973 3282.99852 L 4243.6339 3283.01646 4244.1681 3282.96272 4244.69036 3282.83826 4245.19138 3282.64529 4245.66221 3282.38727 4246.09445 3282.0688 4246.48038 3281.69555 4246.81312 3281.2742 4247.08673 3280.81226 4247.29632 3280.31797 4247.43817 3279.80015 4247.50973 3279.26805 4247.50973 3278.73115 4247.43817 3278.19905 4247.29632 3277.68123 4247.08673 3277.18694 4246.81312 3276.725 4246.48038 3276.30365 4246.09445 3275.9304 4245.66221 3275.61193 4245.19138 3275.35391 4244.69036 3275.16094 4244.1681 3275.03648 4243.6339 3274.98274 4243.0973 3275.00068 4242.56789 3275.08998 4242.0551 3275.24905 4241.56809 3275.47505 4241.11555 3275.76394 4240.70555 3276.11057 4240.34541 3276.50876 4240.04156 3276.9514 4239.79941 3277.43058 4239.6233 3277.93777 4239.51636 3278.46391 4239.4805 3278.9996 4239.51636 3279.53529 4239.6233 3280.06143 4239.79941 3280.56862 4240.04156 3281.0478 4240.34541 3281.49044 4240.70555 3281.88863 4241.11555 3282.23526 4241.56809 3282.52415 4242.0551 3282.75015 4242.56789 3282.90922 4243.0973 3282.99852 Z M 4143.6339 3373.01646 L 4144.1681 3372.96272 4144.69036 3372.83826 4145.19138 3372.64529 4145.66221 3372.38727 4146.09445 3372.0688 4146.48038 3371.69555 4146.81312 3371.2742 4147.08673 3370.81226 4147.29632 3370.31797 4147.43817 3369.80015 4147.50973 3369.26805 4147.50973 3368.73115 4147.43817 3368.19905 4147.29632 3367.68123 4147.08673 3367.18694 4146.81312 3366.725 4146.48038 3366.30365 4146.09445 3365.9304 4145.66221 3365.61193 4145.19138 3365.35391 4144.69036 3365.16094 4144.1681 3365.03648 4143.6339 3364.98274 4143.0973 3365.00068 4142.56789 3365.08998 4142.0551 3365.24905 4141.56809 3365.47505 4141.11555 3365.76394 4140.70555 3366.11057 4140.34541 3366.50876 4140.04156 3366.9514 4139.79941 3367.43058 4139.6233 3367.93777 4139.51636 3368.46391 4139.4805 3368.9996 4139.51636 3369.53529 4139.6233 3370.06143 4139.79941 3370.56862 4140.04156 3371.0478 4140.34541 3371.49044 4140.70555 3371.88863 4141.11555 3372.23526 4141.56809 3372.52415 4142.0551 3372.75015 4142.56789 3372.90922 4143.0973 3372.99852 4143.6339 3373.01646 Z M 4143.0973 3272.99852 L 4143.6339 3273.01646 4144.1681 3272.96272 4144.69036 3272.83826 4145.19138 3272.64529 4145.66221 3272.38727 4146.09445 3272.0688 4146.48038 3271.69555 4146.81312 3271.2742 4147.08673 3270.81226 4147.29632 3270.31797 4147.43817 3269.80015 4147.50973 3269.26805 4147.50973 3268.73115 4147.43817 3268.19905 4147.29632 3267.68123 4147.08673 3267.18694 4146.81312 3266.725 4146.48038 3266.30365 4146.09445 3265.9304 4145.66221 3265.61193 4145.19138 3265.35391 4144.69036 3265.16094 4144.1681 3265.03648 4143.6339 3264.98274 4143.0973 3265.00068 4142.56789 3265.08998 4142.0551 3265.24905 4141.56809 3265.47505 4141.11555 3265.76394 4140.70555 3266.11057 4140.34541 3266.50876 4140.04156 3266.9514 4139.79941 3267.43058 4139.6233 3267.93777 4139.51636 3268.46391 4139.4805 3268.9996 4139.51636 3269.53529 4139.6233 3270.06143 4139.79941 3270.56862 4140.04156 3271.0478 4140.34541 3271.49044 4140.70555 3271.88863 4141.11555 3272.23526 4141.56809 3272.52415 4142.0551 3272.75015 4142.56789 3272.90922 4143.0973 3272.99852 Z M 4243.6339 3373.01646 L 4244.1681 3372.96272 4244.69036 3372.83826 4245.19138 3372.64529 4245.66221 3372.38727 4246.09445 3372.0688 4246.48038 3371.69555 4246.81312 3371.2742 4247.08673 3370.81226 4247.29632 3370.31797 4247.43817 3369.80015 4247.50973 3369.26805 4247.50973 3368.73115 4247.43817 3368.19905 4247.29632 3367.68123 4247.08673 3367.18694 4246.81312 3366.725 4246.48038 3366.30365 4246.09445 3365.9304 4245.66221 3365.61193 4245.19138 3365.35391 4244.69036 3365.16094 4244.1681 3365.03648 4243.6339 3364.98274 4243.0973 3365.00068 4242.56789 3365.08998 4242.0551 3365.24905 4241.56809 3365.47505 4241.11555 3365.76394 4240.70555 3366.11057 4240.34541 3366.50876 4240.04156 3366.9514 4239.79941 3367.43058 4239.6233 3367.93777 4239.51636 3368.46391 4239.4805 3368.9996 4239.51636 3369.53529 4239.6233 3370.06143 4239.79941 3370.56862 4240.04156 3371.0478 4240.34541 3371.49044 4240.70555 3371.88863 4241.11555 3372.23526 4241.56809 3372.52415 4242.0551 3372.75015 4242.56789 3372.90922 4243.0973 3372.99852 4243.6339 3373.01646 Z M 4243.6339 3273.01646 L 4244.1681 3272.96272 4244.69036 3272.83826 4245.19138 3272.64529 4245.66221 3272.38727 4246.09445 3272.0688 4246.48038 3271.69555 4246.81312 3271.2742 4247.08673 3270.81226 4247.29632 3270.31797 4247.43817 3269.80015 4247.50973 3269.26805 4247.50973 3268.73115 4247.43817 3268.19905 4247.29632 3267.68123 4247.08673 3267.18694 4246.81312 3266.725 4246.48038 3266.30365 4246.09445 3265.9304 4245.66221 3265.61193 4245.19138 3265.35391 4244.69036 3265.16094 4244.1681 3265.03648 4243.6339 3264.98274 4243.0973 3265.00068 4242.56789 3265.08998 4242.0551 3265.24905 4241.56809 3265.47505 4241.11555 3265.76394 4240.70555 3266.11057 4240.34541 3266.50876 4240.04156 3266.9514 4239.79941 3267.43058 4239.6233 3267.93777 4239.51636 3268.46391 4239.4805 3268.9996 4239.51636 3269.53529 4239.6233 3270.06143 4239.79941 3270.56862 4240.04156 3271.0478 4240.34541 3271.49044 4240.70555 3271.88863 4241.11555 3272.23526 4241.56809 3272.52415 4242.0551 3272.75015 4242.56789 3272.90922 4243.0973 3272.99852 4243.6339 3273.01646 Z M 4143.0973 3362.99852 L 4143.6339 3363.01646 4144.1681 3362.96272 4144.69036 3362.83826 4145.19138 3362.64529 4145.66221 3362.38727 4146.09445 3362.0688 4146.48038 3361.69555 4146.81312 3361.2742 4147.08673 3360.81226 4147.29632 3360.31797 4147.43817 3359.80015 4147.50973 3359.26805 4147.50973 3358.73115 4147.43817 3358.19905 4147.29632 3357.68123 4147.08673 3357.18694 4146.81312 3356.725 4146.48038 3356.30365 4146.09445 3355.9304 4145.66221 3355.61193 4145.19138 3355.35391 4144.69036 3355.16094 4144.1681 3355.03648 4143.6339 3354.98274 4143.0973 3355.00068 4142.56789 3355.08998 4142.0551 3355.24905 4141.56809 3355.47505 4141.11555 3355.76394 4140.70555 3356.11057 4140.34541 3356.50876 4140.04156 3356.9514 4139.79941 3357.43058 4139.6233 3357.93777 4139.51636 3358.46391 4139.4805 3358.9996 4139.51636 3359.53529 4139.6233 3360.06143 4139.79941 3360.56862 4140.04156 3361.0478 4140.34541 3361.49044 4140.70555 3361.88863 4141.11555 3362.23526 4141.56809 3362.52415 4142.0551 3362.75015 4142.56789 3362.90922 4143.0973 3362.99852 Z M 4143.6339 3263.01646 L 4144.1681 3262.96272 4144.69036 3262.83826 4145.19138 3262.64529 4145.66221 3262.38727 4146.09445 3262.0688 4146.48038 3261.69555 4146.81312 3261.2742 4147.08673 3260.81226 4147.29632 3260.31797 4147.43817 3259.80015 4147.50973 3259.26805 4147.50973 3258.73115 4147.43817 3258.19905 4147.29632 3257.68123 4147.08673 3257.18694 4146.81312 3256.725 4146.48038 3256.30365 4146.09445 3255.9304 4145.66221 3255.61193 4145.19138 3255.35391 4144.69036 3255.16094 4144.1681 3255.03648 4143.6339 3254.98274 4143.0973 3255.00068 4142.56789 3255.08998 4142.0551 3255.24905 4141.56809 3255.47505 4141.11555 3255.76394 4140.70555 3256.11057 4140.34541 3256.50876 4140.04156 3256.9514 4139.79941 3257.43058 4139.6233 3257.93777 4139.51636 3258.46391 4139.4805 3258.9996 4139.51636 3259.53529 4139.6233 3260.06143 4139.79941 3260.56862 4140.04156 3261.0478 4140.34541 3261.49044 4140.70555 3261.88863 4141.11555 3262.23526 4141.56809 3262.52415 4142.0551 3262.75015 4142.56789 3262.90922 4143.0973 3262.99852 4143.6339 3263.01646 Z M 4243.6339 3363.01646 L 4244.1681 3362.96272 4244.69036 3362.83826 4245.19138 3362.64529 4245.66221 3362.38727 4246.09445 3362.0688 4246.48038 3361.69555 4246.81312 3361.2742 4247.08673 3360.81226 4247.29632 3360.31797 4247.43817 3359.80015 4247.50973 3359.26805 4247.50973 3358.73115 4247.43817 3358.19905 4247.29632 3357.68123 4247.08673 3357.18694 4246.81312 3356.725 4246.48038 3356.30365 4246.09445 3355.9304 4245.66221 3355.61193 4245.19138 3355.35391 4244.69036 3355.16094 4244.1681 3355.03648 4243.6339 3354.98274 4243.0973 3355.00068 4242.56789 3355.08998 4242.0551 3355.24905 4241.56809 3355.47505 4241.11555 3355.76394 4240.70555 3356.11057 4240.34541 3356.50876 4240.04156 3356.9514 4239.79941 3357.43058 4239.6233 3357.93777 4239.51636 3358.46391 4239.4805 3358.9996 4239.51636 3359.53529 4239.6233 3360.06143 4239.79941 3360.56862 4240.04156 3361.0478 4240.34541 3361.49044 4240.70555 3361.88863 4241.11555 3362.23526 4241.56809 3362.52415 4242.0551 3362.75015 4242.56789 3362.90922 4243.0973 3362.99852 4243.6339 3363.01646 Z M 4243.0973 3262.99852 L 4243.6339 3263.01646 4244.1681 3262.96272 4244.69036 3262.83826 4245.19138 3262.64529 4245.66221 3262.38727 4246.09445 3262.0688 4246.48038 3261.69555 4246.81312 3261.2742 4247.08673 3260.81226 4247.29632 3260.31797 4247.43817 3259.80015 4247.50973 3259.26805 4247.50973 3258.73115 4247.43817 3258.19905 4247.29632 3257.68123 4247.08673 3257.18694 4246.81312 3256.725 4246.48038 3256.30365 4246.09445 3255.9304 4245.66221 3255.61193 4245.19138 3255.35391 4244.69036 3255.16094 4244.1681 3255.03648 4243.6339 3254.98274 4243.0973 3255.00068 4242.56789 3255.08998 4242.0551 3255.24905 4241.56809 3255.47505 4241.11555 3255.76394 4240.70555 3256.11057 4240.34541 3256.50876 4240.04156 3256.9514 4239.79941 3257.43058 4239.6233 3257.93777 4239.51636 3258.46391 4239.4805 3258.9996 4239.51636 3259.53529 4239.6233 3260.06143 4239.79941 3260.56862 4240.04156 3261.0478 4240.34541 3261.49044 4240.70555 3261.88863 4241.11555 3262.23526 4241.56809 3262.52415 4242.0551 3262.75015 4242.56789 3262.90922 4243.0973 3262.99852 Z M 4143.6339 3253.01646 L 4144.1681 3252.96272 4144.69036 3252.83826 4145.19138 3252.64529 4145.66221 3252.38727 4146.09445 3252.0688 4146.48038 3251.69555 4146.81312 3251.2742 4147.08673 3250.81226 4147.29632 3250.31797 4147.43817 3249.80015 4147.50973 3249.26805 4147.50973 3248.73115 4147.43817 3248.19905 4147.29632 3247.68123 4147.08673 3247.18694 4146.81312 3246.725 4146.48038 3246.30365 4146.09445 3245.9304 4145.66221 3245.61193 4145.19138 3245.35391 4144.69036 3245.16094 4144.1681 3245.03648 4143.6339 3244.98274 4143.0973 3245.00068 4142.56789 3245.08998 4142.0551 3245.24905 4141.56809 3245.47505 4141.11555 3245.76394 4140.70555 3246.11057 4140.34541 3246.50876 4140.04156 3246.9514 4139.79941 3247.43058 4139.6233 3247.93777 4139.51636 3248.46391 4139.4805 3248.9996 4139.51636 3249.53529 4139.6233 3250.06143 4139.79941 3250.56862 4140.04156 3251.0478 4140.34541 3251.49044 4140.70555 3251.88863 4141.11555 3252.23526 4141.56809 3252.52415 4142.0551 3252.75015 4142.56789 3252.90922 4143.0973 3252.99852 4143.6339 3253.01646 Z M 4243.6339 3253.01646 L 4244.1681 3252.96272 4244.69036 3252.83826 4245.19138 3252.64529 4245.66221 3252.38727 4246.09445 3252.0688 4246.48038 3251.69555 4246.81312 3251.2742 4247.08673 3250.81226 4247.29632 3250.31797 4247.43817 3249.80015 4247.50973 3249.26805 4247.50973 3248.73115 4247.43817 3248.19905 4247.29632 3247.68123 4247.08673 3247.18694 4246.81312 3246.725 4246.48038 3246.30365 4246.09445 3245.9304 4245.66221 3245.61193 4245.19138 3245.35391 4244.69036 3245.16094 4244.1681 3245.03648 4243.6339 3244.98274 4243.0973 3245.00068 4242.56789 3245.08998 4242.0551 3245.24905 4241.56809 3245.47505 4241.11555 3245.76394 4240.70555 3246.11057 4240.34541 3246.50876 4240.04156 3246.9514 4239.79941 3247.43058 4239.6233 3247.93777 4239.51636 3248.46391 4239.4805 3248.9996 4239.51636 3249.53529 4239.6233 3250.06143 4239.79941 3250.56862 4240.04156 3251.0478 4240.34541 3251.49044 4240.70555 3251.88863 4241.11555 3252.23526 4241.56809 3252.52415 4242.0551 3252.75015 4242.56789 3252.90922 4243.0973 3252.99852 4243.6339 3253.01646 Z M 4143.6339 3243.01646 L 4144.1681 3242.96272 4144.69036 3242.83826 4145.19138 3242.64529 4145.66221 3242.38727 4146.09445 3242.0688 4146.48038 3241.69555 4146.81312 3241.2742 4147.08673 3240.81226 4147.29632 3240.31797 4147.43817 3239.80015 4147.50973 3239.26805 4147.50973 3238.73115 4147.43817 3238.19905 4147.29632 3237.68123 4147.08673 3237.18694 4146.81312 3236.725 4146.48038 3236.30365 4146.09445 3235.9304 4145.66221 3235.61193 4145.19138 3235.35391 4144.69036 3235.16094 4144.1681 3235.03648 4143.6339 3234.98274 4143.0973 3235.00068 4142.56789 3235.08998 4142.0551 3235.24905 4141.56809 3235.47505 4141.11555 3235.76394 4140.70555 3236.11057 4140.34541 3236.50876 4140.04156 3236.9514 4139.79941 3237.43058 4139.6233 3237.93777 4139.51636 3238.46391 4139.4805 3238.9996 4139.51636 3239.53529 4139.6233 3240.06143 4139.79941 3240.56862 4140.04156 3241.0478 4140.34541 3241.49044 4140.70555 3241.88863 4141.11555 3242.23526 4141.56809 3242.52415 4142.0551 3242.75015 4142.56789 3242.90922 4143.0973 3242.99852 4143.6339 3243.01646 Z M 4145.2496 3415.38581 L 4145.2496 3417.2496 4147.1133 3417.2496 4147.08673 3417.18694 4146.81312 3416.725 4146.48038 3416.30365 4146.09445 3415.9304 4145.66221 3415.61193 4145.2496 3415.38581 Z M 4245.2496 3292.61339 L 4245.66221 3292.38727 4246.09445 3292.0688 4246.48038 3291.69555 4246.81312 3291.2742 4247.08673 3290.81226 4247.1133 3290.7496 4245.2496 3290.7496 4245.2496 3292.61339 Z M 4145.2496 3422.61339 L 4145.66221 3422.38727 4146.09445 3422.0688 4146.48038 3421.69555 4146.81312 3421.2742 4147.08673 3420.81226 4147.1133 3420.7496 4145.2496 3420.7496 4145.2496 3422.61339 Z M 4245.2496 3285.38581 L 4245.2496 3287.2496 4247.1133 3287.2496 4247.08673 3287.18694 4246.81312 3286.725 4246.48038 3286.30365 4246.09445 3285.9304 4245.66221 3285.61193 4245.2496 3285.38581 Z M 4141.7496 3422.60838 L 4141.7496 3420.7496 4139.89087 3420.7496 4140.04156 3421.0478 4140.34541 3421.49044 4140.70555 3421.88863 4141.11555 3422.23526 4141.56809 3422.52415 4141.7496 3422.60838 Z M 4241.7496 3292.60838 L 4241.7496 3290.7496 4239.89087 3290.7496 4240.04156 3291.0478 4240.34541 3291.49044 4240.70555 3291.88863 4241.11555 3292.23526 4241.56809 3292.52415 4241.7496 3292.60838 Z M 4141.7496 3417.2496 L 4141.7496 3415.39082 4141.56809 3415.47505 4141.11555 3415.76394 4140.70555 3416.11057 4140.34541 3416.50876 4140.04156 3416.9514 4139.89087 3417.2496 4141.7496 3417.2496 Z M 4241.7496 3287.2496 L 4241.7496 3285.39082 4241.56809 3285.47505 4241.11555 3285.76394 4240.70555 3286.11057 4240.34541 3286.50876 4240.04156 3286.9514 4239.89087 3287.2496 4241.7496 3287.2496 Z " stroke-width="0" layerid="2" attachedcopperid="gge11480" c_shapetype="line" id="gge11480_0" class=""></path><path d="M 4210.23307 3580.44955 L 4210.08 3580.48 4039.4 3580.48 4039.24693 3580.44955 4039.11716 3580.36284 4039.03045 3580.23307 4039 3580.08 4039 3576.99972 4038.50057 3226.40057 4038.53086 3226.24732 4038.61753 3226.11736 4038.74737 3226.0305 4038.90057 3226 4132.6 3226 4132.75307 3226.03045 4132.88284 3226.11716 4132.96955 3226.24693 4133 3226.4 4133 3427.9606 4133.02786 3428.02786 4139.97214 3434.97214 4140.03859 3435.00031 4202.33619 3435.49869 4202.48754 3435.52974 4202.61583 3435.61583 4210.36284 3443.36284 4210.44955 3443.49261 4210.48 3443.64569 4210.48 3580.08 4210.44955 3580.23307 4210.36284 3580.36284 4210.23307 3580.44955 Z M 4157.59503 3478.23704 L 4157.97172 3478.1888 4158.33485 3478.07759 4158.67395 3477.90662 4158.97929 3477.6808 4159.24206 3477.40662 4159.45473 3477.09198 4159.61115 3476.74592 4159.6568 3476.5706 4159.69678 3476.47262 4159.76105 3476.38855 4171.79575 3464.35386 4171.93314 3464.26408 4172.09503 3464.23704 4172.47172 3464.1888 4172.83485 3464.07759 4173.17395 3463.90662 4173.47929 3463.6808 4173.74206 3463.40662 4173.95473 3463.09198 4174.11115 3462.74592 4174.20685 3462.3784 4174.23905 3462 4174.20685 3461.6216 4174.11115 3461.25408 4173.95473 3460.90802 4173.74206 3460.59338 4173.47929 3460.3192 4173.17395 3460.09338 4172.83485 3459.92241 4172.47172 3459.8112 4172.09503 3459.76296 4171.7156 3459.77908 4171.34435 3459.85909 4171.03338 3459.98405 4170.87858 3460.01286 4170.72465 3459.97968 4170.59545 3459.88967 4170.51101 3459.75677 4170.4844 3459.60158 4170.51975 3459.44814 4170.61115 3459.24592 4170.70685 3458.8784 4170.73905 3458.5 4170.70685 3458.1216 4170.61115 3457.75408 4170.45473 3457.40802 4170.24206 3457.09338 4169.97929 3456.8192 4169.67395 3456.59338 4169.33485 3456.42241 4168.97172 3456.3112 4168.59503 3456.26296 4168.2156 3456.27908 4167.84435 3456.35909 4167.49197 3456.50069 4167.16858 3456.69981 4166.8835 3456.95071 4166.64492 3457.24619 4166.45971 3457.57773 4166.33319 3457.93581 4166.26901 3458.31011 4166.26901 3458.4157 4166.23856 3458.56877 4166.15186 3458.69854 4154.69728 3470.15312 4154.57532 3470.23649 4154.43141 3470.26991 4154.2156 3470.27908 4153.84435 3470.35909 4153.49197 3470.50069 4153.16858 3470.69981 4152.8835 3470.95071 4152.64492 3471.24619 4152.45971 3471.57773 4152.33319 3471.93581 4152.26901 3472.31011 4152.26901 3472.68989 4152.33319 3473.06419 4152.45971 3473.42227 4152.64492 3473.75381 4152.8835 3474.04929 4153.16858 3474.30019 4153.49197 3474.49931 4153.84435 3474.64091 4154.2156 3474.72092 4154.59503 3474.73704 4154.98239 3474.68743 4155.14381 3474.69979 4155.28712 3474.77512 4155.38882 3474.90109 4155.43227 3475.05704 4155.41034 3475.21745 4155.33319 3475.43581 4155.26901 3475.81011 4155.26901 3476.18989 4155.33319 3476.56419 4155.45971 3476.92227 4155.64492 3477.25381 4155.8835 3477.54929 4156.16858 3477.80019 4156.49197 3477.99931 4156.84435 3478.14091 4157.2156 3478.22092 4157.59503 3478.23704 Z M 4124.59503 3515.73704 L 4124.97172 3515.6888 4125.33485 3515.57759 4125.67395 3515.40662 4125.97929 3515.1808 4126.24206 3514.90662 4126.45473 3514.59198 4126.61115 3514.24592 4126.70685 3513.8784 4126.73498 3513.54783 4126.77082 3513.41313 4126.8507 3513.29891 4130.56091 3509.5887 4130.76222 3509.34339 4130.90251 3509.08094 4130.9889 3508.79616 4131.02 3508.48035 4131.02 3487.59869 4131.04576 3487.45746 4131.11973 3487.33442 4131.23238 3487.24542 4131.36919 3487.20193 4131.47172 3487.1888 4131.83485 3487.07759 4132.17395 3486.90662 4132.47929 3486.6808 4132.74206 3486.40662 4132.95473 3486.09198 4133.11115 3485.74592 4133.20685 3485.3784 4133.23905 3485 4133.20685 3484.6216 4133.11115 3484.25408 4132.95473 3483.90802 4132.74206 3483.59338 4132.47929 3483.3192 4132.17395 3483.09338 4131.83485 3482.92241 4131.47172 3482.8112 4131.09503 3482.76296 4130.7156 3482.77908 4130.34435 3482.85909 4129.99197 3483.00069 4129.66858 3483.19981 4129.3835 3483.45071 4129.14492 3483.74619 4128.95971 3484.07773 4128.83319 3484.43581 4128.76901 3484.81011 4128.76901 3484.9157 4128.73856 3485.06877 4128.65186 3485.19854 4128.43909 3485.4113 4128.23778 3485.65661 4128.09749 3485.91906 4128.0111 3486.20384 4127.98 3486.51965 4127.98 3507.70471 4127.94955 3507.85778 4127.86284 3507.98755 4124.69728 3511.15312 4124.57532 3511.23649 4124.43141 3511.26991 4124.2156 3511.27908 4123.84435 3511.35909 4123.49197 3511.50069 4123.16858 3511.69981 4122.8835 3511.95071 4122.64492 3512.24619 4122.45971 3512.57773 4122.33319 3512.93581 4122.26901 3513.31011 4122.26901 3513.68989 4122.33319 3514.06419 4122.45971 3514.42227 4122.64492 3514.75381 4122.8835 3515.04929 4123.16858 3515.30019 4123.49197 3515.49931 4123.84435 3515.64091 4124.2156 3515.72092 4124.59503 3515.73704 Z M 4171.59503 3495.23704 L 4171.97172 3495.1888 4172.33485 3495.07759 4172.67395 3494.90662 4172.97929 3494.6808 4173.24206 3494.40662 4173.45473 3494.09198 4173.61562 3493.72875 4173.6915 3493.57826 4173.82263 3493.47237 4173.98574 3493.42991 4174.15186 3493.45839 4174.2915 3493.55277 4174.37987 3493.69629 4174.45971 3493.92227 4174.64492 3494.25381 4174.8835 3494.54929 4175.16858 3494.80019 4175.49197 3494.99931 4175.84435 3495.14091 4176.2156 3495.22092 4176.59503 3495.23704 4176.97172 3495.1888 4177.33485 3495.07759 4177.67395 3494.90662 4177.97929 3494.6808 4178.24206 3494.40662 4178.45473 3494.09198 4178.61115 3493.74592 4178.70685 3493.3784 4178.73905 3493 4178.70685 3492.6216 4178.61115 3492.25408 4178.45473 3491.90802 4178.24206 3491.59338 4178.13122 3491.47773 4178.04884 3491.35009 4178.02 3491.20095 4178.02 3482.79905 4178.04884 3482.64991 4178.13122 3482.52227 4178.24206 3482.40662 4178.45473 3482.09198 4178.61115 3481.74592 4178.70685 3481.3784 4178.73905 3481 4178.70685 3480.6216 4178.61115 3480.25408 4178.45473 3479.90802 4178.24206 3479.59338 4177.97929 3479.3192 4177.67395 3479.09338 4177.33485 3478.92241 4176.97172 3478.8112 4176.59503 3478.76296 4176.2156 3478.77908 4175.84435 3478.85909 4175.49197 3479.00069 4175.16858 3479.19981 4174.8835 3479.45071 4174.64492 3479.74619 4174.45971 3480.07773 4174.37987 3480.30371 4174.2915 3480.44723 4174.15186 3480.54161 4173.98574 3480.57009 4173.82263 3480.52763 4173.6915 3480.42174 4173.45473 3479.90802 4173.24206 3479.59338 4172.97929 3479.3192 4172.67395 3479.09338 4172.33485 3478.92241 4171.97172 3478.8112 4171.59503 3478.76296 4171.2156 3478.77908 4170.84435 3478.85909 4170.49197 3479.00069 4170.16858 3479.19981 4169.8835 3479.45071 4169.64492 3479.74619 4169.45971 3480.07773 4169.33319 3480.43581 4169.26901 3480.81011 4169.26901 3481.18989 4169.33319 3481.56419 4169.45971 3481.92227 4169.64492 3482.25381 4169.89121 3482.55884 4169.95715 3482.67687 4169.98 3482.81013 4169.98 3491.18987 4169.95715 3491.32313 4169.89121 3491.44116 4169.64492 3491.74619 4169.45971 3492.07773 4169.33319 3492.43581 4169.26901 3492.81011 4169.26901 3493.18989 4169.33319 3493.56419 4169.45971 3493.92227 4169.64492 3494.25381 4169.8835 3494.54929 4170.16858 3494.80019 4170.49197 3494.99931 4170.84435 3495.14091 4171.2156 3495.22092 4171.59503 3495.23704 Z M 4050.56698 3243.54874 L 4051.18492 3243.62097 4051.80708 3243.62097 4052.42502 3243.54874 4053.0304 3243.40527 4053.61504 3243.19248 4054.17101 3242.91326 4054.69081 3242.57138 4055.16741 3242.17147 4055.59435 3241.71893 4055.96588 3241.21989 4056.27695 3240.68109 4056.52338 3240.10982 4056.70181 3239.5138 4056.80985 3238.9011 4056.84602 3238.28 4056.80985 3237.6589 4056.70181 3237.0462 4056.52338 3236.45018 4056.27695 3235.87891 4055.96588 3235.34011 4055.59435 3234.84107 4055.16741 3234.38853 4054.69081 3233.98862 4054.17101 3233.64674 4053.61504 3233.36752 4053.0304 3233.15473 4052.42502 3233.01126 4051.80708 3232.93903 4051.18492 3232.93903 4050.56698 3233.01126 4049.9616 3233.15473 4049.37696 3233.36752 4048.82099 3233.64674 4048.30119 3233.98862 4047.82459 3234.38853 4047.39765 3234.84107 4047.02612 3235.34011 4046.71505 3235.87891 4046.46862 3236.45018 4046.29019 3237.0462 4046.18215 3237.6589 4046.14598 3238.28 4046.18215 3238.9011 4046.29019 3239.5138 4046.46862 3240.10982 4046.71505 3240.68109 4047.02612 3241.21989 4047.39765 3241.71893 4047.82459 3242.17147 4048.30119 3242.57138 4048.82099 3242.91326 4049.37696 3243.19248 4049.9616 3243.40527 4050.56698 3243.54874 Z M 4051.496 3570.07027 L 4052.10101 3570.03367 4052.69719 3569.92442 4053.27586 3569.7441 4053.82857 3569.49534 4054.34727 3569.18178 4054.82439 3568.80798 4055.25298 3568.37939 4055.62678 3567.90227 4055.94034 3567.38357 4056.1891 3566.83086 4056.36942 3566.25219 4056.47867 3565.65601 4056.51527 3565.051 4056.47867 3564.44599 4056.36942 3563.84981 4056.1891 3563.27114 4055.94034 3562.71843 4055.62678 3562.19973 4055.25298 3561.72261 4054.82439 3561.29402 4054.34727 3560.92022 4053.82857 3560.60666 4053.27586 3560.3579 4052.69719 3560.17758 4052.10101 3560.06833 4051.496 3560.03173 4050.89099 3560.06833 4050.29481 3560.17758 4049.71614 3560.3579 4049.16343 3560.60666 4048.64473 3560.92022 4048.16761 3561.29402 4047.73902 3561.72261 4047.36522 3562.19973 4047.05166 3562.71843 4046.8029 3563.27114 4046.62258 3563.84981 4046.51333 3564.44599 4046.47673 3565.051 4046.51333 3565.65601 4046.62258 3566.25219 4046.8029 3566.83086 4047.05166 3567.38357 4047.36522 3567.90227 4047.73902 3568.37939 4048.16761 3568.80798 4048.64473 3569.18178 4049.16343 3569.49534 4049.71614 3569.7441 4050.29481 3569.92442 4050.89099 3570.03367 4051.496 3570.07027 Z M 4065.09503 3383.23704 L 4065.47172 3383.1888 4065.83485 3383.07759 4066.17395 3382.90662 4066.47929 3382.6808 4066.74206 3382.40662 4066.95473 3382.09198 4067.11115 3381.74592 4067.20685 3381.3784 4067.23498 3381.04783 4067.27082 3380.91313 4067.3507 3380.79891 4069.79575 3378.35386 4069.93314 3378.26408 4070.09503 3378.23704 4070.47172 3378.1888 4070.83485 3378.07759 4071.17395 3377.90662 4071.47929 3377.6808 4071.74206 3377.40662 4071.95473 3377.09198 4072.11115 3376.74592 4072.20685 3376.3784 4072.23905 3376 4072.20685 3375.6216 4072.11115 3375.25408 4071.95473 3374.90802 4071.74206 3374.59338 4071.47929 3374.3192 4071.17395 3374.09338 4070.83485 3373.92241 4070.47172 3373.8112 4070.09503 3373.76296 4069.7156 3373.77908 4069.34435 3373.85909 4068.99197 3374.00069 4068.66858 3374.19981 4068.3835 3374.45071 4068.14492 3374.74619 4067.95971 3375.07773 4067.83319 3375.43581 4067.76901 3375.81011 4067.76901 3375.9157 4067.73856 3376.06877 4067.65186 3376.19854 4065.19728 3378.65312 4065.07532 3378.73649 4064.93141 3378.76991 4064.7156 3378.77908 4064.34435 3378.85909 4063.99197 3379.00069 4063.66858 3379.19981 4063.3835 3379.45071 4063.14492 3379.74619 4062.95971 3380.07773 4062.83319 3380.43581 4062.76901 3380.81011 4062.76901 3381.18989 4062.83319 3381.56419 4062.95971 3381.92227 4063.14492 3382.25381 4063.3835 3382.54929 4063.66858 3382.80019 4063.99197 3382.99931 4064.34435 3383.14091 4064.7156 3383.22092 4065.09503 3383.23704 Z M 4110.14507 3273.48169 L 4110.71352 3273.55351 4111.28648 3273.55351 4111.85493 3273.48169 4112.40989 3273.3392 4112.94262 3273.12828 4113.44471 3272.85225 4113.90825 3272.51547 4114.32593 3272.12325 4114.69115 3271.68178 4114.99816 3271.19801 4115.24211 3270.67957 4115.41917 3270.13465 4115.52653 3269.57183 4115.56251 3269 4115.52653 3268.42817 4115.41917 3267.86535 4115.24211 3267.32043 4114.99816 3266.80199 4114.69115 3266.31822 4114.32593 3265.87675 4113.90825 3265.48453 4113.44471 3265.14775 4112.94262 3264.87172 4112.40989 3264.6608 4111.85493 3264.51831 4111.28648 3264.44649 4110.71352 3264.44649 4110.14507 3264.51831 4109.59011 3264.6608 4109.05738 3264.87172 4108.55529 3265.14775 4108.09175 3265.48453 4107.67407 3265.87675 4107.30885 3266.31822 4107.00184 3266.80199 4106.75789 3267.32043 4106.58083 3267.86535 4106.47347 3268.42817 4106.43749 3269 4106.47347 3269.57183 4106.58083 3270.13465 4106.75789 3270.67957 4107.00184 3271.19801 4107.30885 3271.68178 4107.67407 3272.12325 4108.09175 3272.51547 4108.55529 3272.85225 4109.05738 3273.12828 4109.59011 3273.3392 4110.14507 3273.48169 Z M 4087.28648 3273.05351 L 4087.85493 3272.98169 4088.40989 3272.8392 4088.94262 3272.62828 4089.44471 3272.35225 4089.90825 3272.01547 4090.32593 3271.62325 4090.69115 3271.18178 4090.99816 3270.69801 4091.24211 3270.17957 4091.41917 3269.63465 4091.52653 3269.07183 4091.56251 3268.5 4091.52653 3267.92817 4091.41917 3267.36535 4091.24211 3266.82043 4090.99816 3266.30199 4090.69115 3265.81822 4090.32593 3265.37675 4089.90825 3264.98453 4089.44471 3264.64775 4088.94262 3264.37172 4088.40989 3264.1608 4087.85493 3264.01831 4087.28648 3263.94649 4086.71352 3263.94649 4086.14507 3264.01831 4085.59011 3264.1608 4085.05738 3264.37172 4084.55529 3264.64775 4084.09175 3264.98453 4083.67407 3265.37675 4083.30885 3265.81822 4083.00184 3266.30199 4082.75789 3266.82043 4082.58083 3267.36535 4082.47347 3267.92817 4082.43749 3268.5 4082.47347 3269.07183 4082.58083 3269.63465 4082.75789 3270.17957 4083.00184 3270.69801 4083.30885 3271.18178 4083.67407 3271.62325 4084.09175 3272.01547 4084.55529 3272.35225 4085.05738 3272.62828 4085.59011 3272.8392 4086.14507 3272.98169 4086.71352 3273.05351 4087.28648 3273.05351 Z M 4058.59503 3345.23704 L 4058.97172 3345.1888 4059.33485 3345.07759 4059.67395 3344.90662 4059.97929 3344.6808 4060.24206 3344.40662 4060.45473 3344.09198 4060.61115 3343.74592 4060.70685 3343.3784 4060.73905 3343 4060.70685 3342.6216 4060.61115 3342.25408 4060.45473 3341.90802 4060.24206 3341.59338 4059.97929 3341.3192 4059.67395 3341.09338 4059.33485 3340.92241 4058.97172 3340.8112 4058.59503 3340.76296 4058.2156 3340.77908 4057.84435 3340.85909 4057.57605 3340.96691 4057.42691 3340.99575 4045.57545 3340.99575 4045.4829 3340.9849 4045.33485 3340.92241 4044.97172 3340.8112 4044.59503 3340.76296 4044.2156 3340.77908 4043.84435 3340.85909 4043.49197 3341.00069 4043.16858 3341.19981 4042.8835 3341.45071 4042.64492 3341.74619 4042.45971 3342.07773 4042.33319 3342.43581 4042.26901 3342.81011 4042.26901 3343.18989 4042.33319 3343.56419 4042.45971 3343.92227 4042.64492 3344.25381 4042.8835 3344.54929 4043.16858 3344.80019 4043.49197 3344.99931 4043.84435 3345.14091 4044.2156 3345.22092 4044.59503 3345.23704 4044.97172 3345.1888 4045.33485 3345.07759 4045.4829 3345.0151 4045.57545 3345.00425 4057.42691 3345.00425 4057.57605 3345.03309 4057.84435 3345.14091 4058.2156 3345.22092 4058.59503 3345.23704 Z M 4085.59503 3515.73704 L 4085.97172 3515.6888 4086.33485 3515.57759 4086.67395 3515.40662 4086.97929 3515.1808 4087.24206 3514.90662 4087.45473 3514.59198 4087.61115 3514.24592 4087.70685 3513.8784 4087.73905 3513.5 4087.70685 3513.1216 4087.61115 3512.75408 4087.45473 3512.40802 4087.24206 3512.09338 4086.97929 3511.8192 4086.67395 3511.59338 4086.33485 3511.42241 4085.97172 3511.3112 4085.59503 3511.26296 4085.2156 3511.27908 4084.84435 3511.35909 4084.49197 3511.50069 4084.16858 3511.69981 4083.96354 3511.88027 4083.8405 3511.95424 4083.69927 3511.98 4078.30408 3511.98 4078.14709 3511.94791 4077.67395 3511.59338 4077.33485 3511.42241 4076.97172 3511.3112 4076.59503 3511.26296 4076.2156 3511.27908 4075.84435 3511.35909 4075.49197 3511.50069 4075.16858 3511.69981 4074.8835 3511.95071 4074.64492 3512.24619 4074.45971 3512.57773 4074.33319 3512.93581 4074.26901 3513.31011 4074.26901 3513.68989 4074.33319 3514.06419 4074.45971 3514.42227 4074.64492 3514.75381 4074.8835 3515.04929 4075.16858 3515.30019 4075.49197 3515.49931 4075.84435 3515.64091 4076.2156 3515.72092 4076.59503 3515.73704 4076.97172 3515.6888 4077.33485 3515.57759 4077.67395 3515.40662 4077.97929 3515.1808 4078.14709 3515.05209 4078.30408 3515.02 4083.69927 3515.02 4083.8405 3515.04576 4083.96354 3515.11973 4084.16858 3515.30019 4084.49197 3515.49931 4084.84435 3515.64091 4085.2156 3515.72092 4085.59503 3515.73704 Z M 4090.59503 3457.73704 L 4090.97172 3457.6888 4091.33485 3457.57759 4091.67395 3457.40662 4091.97929 3457.1808 4092.24206 3456.90662 4092.45473 3456.59198 4092.61115 3456.24592 4092.70685 3455.8784 4092.73905 3455.5 4092.70685 3455.1216 4092.61115 3454.75408 4092.45473 3454.40802 4092.24206 3454.09338 4092.13122 3453.97773 4092.04884 3453.85009 4092.02 3453.70095 4092.02 3449.79905 4092.04884 3449.64991 4092.13122 3449.52227 4092.24206 3449.40662 4092.45473 3449.09198 4092.61115 3448.74592 4092.70685 3448.3784 4092.73905 3448 4092.70685 3447.6216 4092.61115 3447.25408 4092.45473 3446.90802 4092.24206 3446.59338 4091.97929 3446.3192 4091.67395 3446.09338 4091.33485 3445.92241 4090.97172 3445.8112 4090.59503 3445.76296 4090.2156 3445.77908 4089.84435 3445.85909 4089.49197 3446.00069 4089.16858 3446.19981 4088.8835 3446.45071 4088.64492 3446.74619 4088.45971 3447.07773 4088.33319 3447.43581 4088.26901 3447.81011 4088.26901 3448.18989 4088.33319 3448.56419 4088.45971 3448.92227 4088.64492 3449.25381 4088.89121 3449.55884 4088.95715 3449.67687 4088.98 3449.81013 4088.98 3453.68987 4088.95715 3453.82313 4088.89121 3453.94116 4088.64492 3454.24619 4088.45971 3454.57773 4088.33319 3454.93581 4088.26901 3455.31011 4088.26901 3455.68989 4088.33319 3456.06419 4088.45971 3456.42227 4088.64492 3456.75381 4088.8835 3457.04929 4089.16858 3457.30019 4089.49197 3457.49931 4089.84435 3457.64091 4090.2156 3457.72092 4090.59503 3457.73704 Z M 4085.2156 3534.72092 L 4085.59503 3534.73704 4085.97172 3534.6888 4086.33485 3534.57759 4086.67395 3534.40662 4086.97929 3534.1808 4087.24206 3533.90662 4087.45473 3533.59198 4087.61115 3533.24592 4087.70685 3532.8784 4087.73905 3532.5 4087.70685 3532.1216 4087.61115 3531.75408 4087.45473 3531.40802 4087.24206 3531.09338 4086.97929 3530.8192 4086.67395 3530.59338 4086.33485 3530.42241 4085.97172 3530.3112 4085.59503 3530.26296 4085.2156 3530.27908 4084.84435 3530.35909 4084.49197 3530.50069 4084.16858 3530.69981 4083.96354 3530.88027 4083.8405 3530.95424 4083.69927 3530.98 4081.30408 3530.98 4081.14709 3530.94791 4080.67395 3530.59338 4080.33485 3530.42241 4079.97172 3530.3112 4079.59503 3530.26296 4079.2156 3530.27908 4078.84435 3530.35909 4078.49197 3530.50069 4078.16858 3530.69981 4077.8835 3530.95071 4077.64492 3531.24619 4077.45971 3531.57773 4077.33319 3531.93581 4077.26901 3532.31011 4077.26901 3532.68989 4077.33319 3533.06419 4077.45971 3533.42227 4077.64492 3533.75381 4077.8835 3534.04929 4078.16858 3534.30019 4078.49197 3534.49931 4078.84435 3534.64091 4079.2156 3534.72092 4079.59503 3534.73704 4079.97172 3534.6888 4080.33485 3534.57759 4080.67395 3534.40662 4080.97929 3534.1808 4081.14709 3534.05209 4081.30408 3534.02 4083.69927 3534.02 4083.8405 3534.04576 4083.96354 3534.11973 4084.16858 3534.30019 4084.49197 3534.49931 4084.84435 3534.64091 4085.2156 3534.72092 Z M 4156.30442 3545.88513 L 4156.75876 3545.83268 4157.19977 3545.71149 4157.6171 3545.5244 4158.00099 3545.2758 4158.34243 3544.97151 4158.63342 3544.61866 4158.86714 3544.22553 4159.0381 3543.80134 4159.14231 3543.35601 4159.17732 3542.9 4159.14231 3542.44399 4159.0381 3541.99866 4158.86714 3541.57447 4158.63342 3541.18134 4158.34243 3540.82849 4158.00099 3540.5242 4157.6171 3540.2756 4157.19977 3540.08851 4156.75876 3539.96732 4156.30442 3539.91487 4155.8474 3539.93239 4155.39841 3540.01946 4154.96798 3540.17406 4154.56619 3540.39254 4154.20246 3540.6698 4153.88531 3540.99934 4153.62219 3541.37342 4153.41925 3541.78329 4153.28126 3542.21933 4153.21144 3542.67132 4153.21144 3543.12868 4153.28126 3543.58067 4153.41925 3544.01671 4153.62219 3544.42658 4153.88531 3544.80066 4154.20246 3545.1302 4154.56619 3545.40746 4154.96798 3545.62594 4155.39841 3545.78054 4155.8474 3545.86761 4156.30442 3545.88513 Z M 4156.30442 3569.50513 L 4156.75876 3569.45268 4157.19977 3569.33149 4157.6171 3569.1444 4158.00099 3568.8958 4158.34243 3568.59151 4158.63342 3568.23866 4158.86714 3567.84553 4159.0381 3567.42134 4159.14231 3566.97601 4159.17732 3566.52 4159.14231 3566.06399 4159.0381 3565.61866 4158.86714 3565.19447 4158.63342 3564.80134 4158.34243 3564.44849 4158.00099 3564.1442 4157.6171 3563.8956 4157.19977 3563.70851 4156.75876 3563.58732 4156.30442 3563.53487 4155.8474 3563.55239 4155.39841 3563.63946 4154.96798 3563.79406 4154.56619 3564.01254 4154.20246 3564.2898 4153.88531 3564.61934 4153.62219 3564.99342 4153.41925 3565.40329 4153.28126 3565.83933 4153.21144 3566.29132 4153.21144 3566.74868 4153.28126 3567.20067 4153.41925 3567.63671 4153.62219 3568.04658 4153.88531 3568.42066 4154.20246 3568.7502 4154.56619 3569.02746 4154.96798 3569.24594 4155.39841 3569.40054 4155.8474 3569.48761 4156.30442 3569.50513 Z M 4055.55529 3271.85225 L 4055.97835 3272.08484 4055.97835 3270.02165 4053.91886 3270.02165 4054.00184 3270.19801 4054.30885 3270.68178 4054.67407 3271.12325 4055.09175 3271.51547 4055.55529 3271.85225 Z M 4062.08114 3265.97835 L 4061.99816 3265.80199 4061.69115 3265.31822 4061.32593 3264.87675 4060.90825 3264.48453 4060.44471 3264.14775 4060.02165 3263.91516 4060.02165 3265.97835 4062.08114 3265.97835 Z M 4060.02165 3270.02165 L 4060.02165 3272.08484 4060.44471 3271.85225 4060.90825 3271.51547 4061.32593 3271.12325 4061.69115 3270.68178 4061.99816 3270.19801 4062.08114 3270.02165 4060.02165 3270.02165 Z M 4055.97835 3265.97835 L 4055.97835 3263.91516 4055.55529 3264.14775 4055.09175 3264.48453 4054.67407 3264.87675 4054.30885 3265.31822 4054.00184 3265.80199 4053.91886 3265.97835 4055.97835 3265.97835 Z " stroke-width="0" layerid="2" attachedcopperid="gge11600" c_shapetype="line" id="gge11600_0" class=""></path><polyline points="4044.5 3343 4058.5 3343" stroke-width="1.9685"  stroke-linecap="round" fill="none" layerid="2" net="AVDD" id="gge11402" locked="0" /><polyline points="4070 3376 4065 3381" stroke-width="1"  stroke-linecap="round" fill="none" layerid="2" net="AVDD" id="gge11314" locked="0" /><polyline points="4085.5 3513.5 4076.5 3513.5" stroke-width="1"  stroke-linecap="round" fill="none" layerid="2" net="AVDD" id="gge11311" locked="0" /><polyline points="4243.5 3419 4262 3419" stroke-width="2.3622"  stroke-linecap="round" fill="none" layerid="2" net="DVDD" id="gge11182" locked="0" /><polyline points="4235.5 3426 4224.5 3437" stroke-width="1.1811"  stroke-linecap="round" fill="none" layerid="2" net="DVDD" id="gge11122" locked="0" /><polyline points="4250.5 3447.5 4240 3447.5" stroke-width="1"  stroke-linecap="round" fill="none" layerid="2" net="MOSI" id="gge11068" locked="0" /><polyline points="4176.5 3481 4176.5 3493" stroke-width="1"  stroke-linecap="round" fill="none" layerid="2" net="PGA2N" id="gge11062" locked="0" /><polyline points="4171.5 3481 4171.5 3493" stroke-width="1"  stroke-linecap="round" fill="none" layerid="2" net="PGA2P" id="gge11059" locked="0" /><polyline points="4079.5 3532.5 4085.5 3532.5" stroke-width="1"  stroke-linecap="round" fill="none" layerid="2" net="RESP_MODP" id="gge11053" locked="0" /><polyline points="4172 3462 4158 3476 4157.5 3476" stroke-width="1"  stroke-linecap="round" fill="none" layerid="2" net="RESP_MODN" id="gge11050" locked="0" /><polyline points="4168.5 3458.5 4154.5 3472.5" stroke-width="1"  stroke-linecap="round" fill="none" layerid="2" net="RESP_MODP" id="gge11047" locked="0" /><polyline points="4090.5 3448 4090.5 3455.5" stroke-width="1"  stroke-linecap="round" fill="none" layerid="2" net="C2_1" id="gge10911" locked="0" /><polyline points="4124.5 3513.5 4129.5 3508.5 4129.5 3486.5 4131 3485" stroke-width="1"  stroke-linecap="round" fill="none" layerid="2" net="IN1P" id="gge10878" locked="0" /><g c_partid="part_hole" c_etype="pinpart" c_shapetype="group" c_origin="4051.496,3238.28" layerid="11" id="gge13198" locked="0" ><circle cx="4051.496" cy="3238.28" r="4.3307"  stroke-width="1" fill-opacity="0" /></g><g c_partid="part_hole" c_etype="pinpart" c_shapetype="group" c_origin="4051.496,3565.051" layerid="11" id="gge13213" locked="0" ><circle cx="4051.496" cy="3565.051" r="4"  stroke-width="1" fill-opacity="0" /></g><g c_partid="part_hole" c_etype="pinpart" c_shapetype="group" c_origin="4156.19,3566.52" layerid="11" id="gge3642" locked="0" ><circle cx="4156.19" cy="3566.52" r="1.9685"  stroke-width="1" fill-opacity="0" /></g><g c_partid="part_hole" c_etype="pinpart" c_shapetype="group" c_origin="4156.19,3542.9" layerid="11" id="gge3654" locked="0" ><circle cx="4156.19" cy="3542.9" r="1.9685"  stroke-width="1" fill-opacity="0" /></g><polyline points="4037 3224.5 4273 3224.5 4273 3581.5 4037 3581.5 4037 3224.5 4037 3224.5" stroke-width="1"  stroke-linecap="round" fill="none" layerid="10" net="" id="gge6099" locked="0" /></svg>